<svg width="410" height="57" viewBox="0 0 410 57" fill="none" xmlns="http://www.w3.org/2000/svg">
<path d="M13.5042 55.4933H0V1.068H13.5042V6.85244C15.9699 4.70926 18.751 2.99615 21.9694 1.82063C25.0731 0.637937 28.4993 0 32.1477 0C35.7961 0 38.8998 0.537587 41.6809 1.71311C44.6771 2.78112 47.0353 4.28636 49.1785 6.42954C51.1066 8.35769 52.705 10.8234 53.8877 13.7121C54.9557 16.5003 55.5005 19.604 55.5005 23.1377V55.4933H41.9963V24.1054C41.9963 20.1416 40.9283 17.1383 38.6704 14.7801C36.4269 12.6369 33.4236 11.4542 29.5601 11.4542C24.6358 11.4542 20.672 13.0598 17.8837 16.2781C14.8876 19.604 13.497 23.9979 13.497 29.4526V55.4862L13.5042 55.4933Z" fill="#2B7A78"/>
<path d="M91.9417 56.5613C87.6625 56.5613 83.6915 55.8087 80.1578 54.4181C76.5165 53.0276 73.4057 50.9919 70.7321 48.5262C68.1588 46.0605 66.1232 43.0643 64.6251 39.6381C63.127 36.1043 62.3816 32.3556 62.3816 28.2842C62.3816 24.2129 63.1342 20.457 64.5176 16.9232C66.0228 13.497 68.0585 10.4937 70.7321 8.03513C73.4128 5.5694 76.5165 3.54091 80.1578 2.14318C83.6915 0.75262 87.6553 0 91.9417 0C96.228 0 100.192 0.645103 103.726 2.14318C107.266 3.43339 110.37 5.46905 113.044 7.92762C115.725 10.5009 117.76 13.5042 119.151 16.9304C120.649 20.4641 121.401 24.2129 121.401 28.2914C121.401 32.3699 120.649 36.1115 119.151 39.6453C117.76 43.0786 115.725 46.0748 113.151 48.648C110.478 51.1138 107.367 53.1423 103.726 54.4325C100.192 55.9306 96.228 56.5757 91.9417 56.5757V56.5613ZM91.9417 11.4614C87.3399 11.4614 83.6915 12.9666 80.8029 16.0703C77.9142 19.1739 76.5165 23.2453 76.5165 28.2842C76.5165 33.3232 77.9142 37.287 80.8029 40.4911C83.584 43.4944 87.3399 45.1 91.9417 45.1C96.5434 45.1 100.299 43.4944 103.088 40.4911C105.976 37.2799 107.374 33.3161 107.374 28.2842C107.374 23.2524 105.976 19.1739 103.088 16.0703C100.192 12.9666 96.5506 11.4614 91.9417 11.4614Z" fill="#2B7A78"/>
<path d="M142.317 55.4933H128.813V1.068H142.317V6.85244C144.561 4.70926 147.241 2.99615 150.352 1.82063C153.348 0.637937 156.674 0 160.323 0C164.709 0 168.573 0.860137 171.892 2.57325C175.21 4.28636 177.784 6.64458 179.704 9.75541C182.17 6.65174 185.166 4.29353 188.707 2.57325C192.349 0.860137 196.42 0 200.914 0C204.455 0 207.666 0.537587 210.555 1.71311C213.443 2.78112 216.017 4.28636 218.052 6.42954C220.088 8.35769 221.694 10.8234 222.977 13.7121C224.045 16.5003 224.69 19.604 224.69 23.1377V55.4933H211.193V24.1054C211.193 20.1416 210.125 17.1383 207.767 14.7801C205.623 12.6369 202.52 11.4542 198.656 11.4542C196.621 11.4542 194.8 11.7767 192.986 12.4218C191.166 13.0598 189.661 13.9199 188.27 15.203C186.879 16.271 185.912 17.6687 185.059 19.2743C184.421 20.7724 183.991 22.4855 183.991 24.3061V55.4862H170.386V24.0982C170.386 20.1344 169.318 17.1311 167.175 14.7729C165.032 12.6297 162.036 11.447 158.18 11.447C153.248 11.447 149.392 13.0526 146.503 16.271C143.715 19.3746 142.324 23.661 142.324 29.0225V55.4862L142.317 55.4933Z" fill="#2B7A78"/>
<path d="M261.475 56.5613C257.189 56.5613 253.225 55.8087 249.691 54.4181C246.05 53.0276 242.946 50.9919 240.266 48.5262C237.699 46.0605 235.657 43.0643 234.159 39.6381C232.66 36.1043 231.908 32.3556 231.908 28.2842C231.908 24.2129 232.66 20.457 234.051 16.9232C235.556 13.497 237.592 10.4937 240.266 8.03513C242.946 5.5694 246.057 3.54091 249.691 2.14318C253.232 0.75262 257.189 0 261.475 0C265.761 0 269.725 0.645103 273.259 2.14318C276.793 3.43339 279.904 5.46905 282.577 7.92762C285.258 10.5009 287.294 13.5042 288.684 16.9304C290.189 20.4641 290.935 24.2129 290.935 28.2914C290.935 32.3699 290.189 36.1115 288.684 39.6453C287.294 43.0786 285.258 46.0748 282.685 48.648C280.004 51.1138 276.9 53.1423 273.259 54.4325C269.718 55.9306 265.761 56.5757 261.475 56.5757V56.5613ZM261.475 11.4614C256.866 11.4614 253.225 12.9666 250.336 16.0703C247.44 19.1739 246.05 23.2453 246.05 28.2842C246.05 33.3232 247.44 37.287 250.336 40.4911C253.117 43.4944 256.866 45.1 261.475 45.1C266.084 45.1 269.833 43.4944 272.621 40.4911C275.517 37.2799 276.907 33.3161 276.907 28.2842C276.907 23.2524 275.517 19.1739 272.621 16.0703C269.725 12.9666 266.091 11.4614 261.475 11.4614Z" fill="#2B7A78"/>
<path d="M327.491 11.4612C322.667 11.4612 318.703 12.9664 315.814 16.0701C312.811 19.1738 311.313 23.2451 311.313 28.2841C311.313 30.7498 311.743 33.0005 312.496 35.0362C313.241 37.0718 314.424 38.8925 315.821 40.283C317.212 41.7811 319.033 42.9638 320.961 43.7092C323.104 44.5694 325.247 44.9994 327.713 44.9994C330.394 44.9994 332.96 44.5694 335.426 43.6089C337.891 42.6412 340.034 41.3582 341.64 39.7526L347.102 48.8629C344.421 51.1064 341.21 53.0417 337.676 54.4323C334.035 55.8229 330.501 56.5755 327.068 56.5755C322.674 56.5755 318.71 55.8229 315.069 54.4323C311.428 53.0417 308.317 51.0061 305.643 48.5403C302.962 46.0746 300.927 43.0785 299.429 39.6522C297.931 36.1185 297.185 32.3697 297.185 28.2984C297.185 24.2271 297.938 20.4711 299.429 16.9374C300.934 13.5112 302.97 10.5079 305.643 8.0493C308.324 5.58357 311.428 3.55507 315.069 2.15734C318.71 0.766786 322.674 0.0141601 326.96 0.0141601C330.501 0.0141601 333.82 0.55175 336.816 1.51224C340.027 2.4799 342.816 3.97797 345.281 5.7986L340.995 17.2671C339.389 15.554 337.454 14.1563 335.103 13.0883C332.745 12.0203 330.171 11.4827 327.498 11.4827L327.491 11.4612Z" fill="#2B7A78"/>
<path d="M410 1.06767V55.493H396.496V50.2461C394.353 52.2818 391.887 53.7799 389.106 54.8551C386.217 56.0377 383.106 56.5682 379.787 56.5682C375.716 56.5682 371.967 55.8155 368.642 54.425C365.323 53.0344 362.427 50.9988 359.968 48.533C357.61 46.0673 355.79 43.0711 354.392 39.6449C353.001 36.1112 352.356 32.3624 352.356 28.1836C352.356 24.0047 353.001 20.3635 354.392 16.9301C355.79 13.5039 357.603 10.5005 360.076 8.04197C362.542 5.57624 365.43 3.54774 368.749 2.15001C372.068 0.759456 375.824 0.00683593 379.78 0.00683593C383.106 0.00683593 386.21 0.544423 389.099 1.71995C391.887 2.78795 394.345 4.29319 396.489 6.21417V1.07484H409.993L410 1.06767ZM381.393 11.461C376.899 11.461 373.25 12.9663 370.469 16.0699C367.789 19.1736 366.398 23.2449 366.398 28.2839C366.398 30.7496 366.721 33.1007 367.466 35.1435C368.211 37.1792 369.179 38.9998 370.462 40.4979C371.853 41.8956 373.458 43.0711 375.279 43.9313C377.1 44.6839 379.142 45.114 381.386 45.114C383.629 45.114 385.672 44.6839 387.6 43.9313C389.314 43.0783 390.919 41.8956 392.31 40.4979C393.6 38.9998 394.56 37.1792 395.306 35.1435C396.058 33.1079 396.374 30.7496 396.374 28.2839C396.374 25.8182 396.051 23.46 395.306 21.4243C394.56 19.3886 393.593 17.568 392.31 16.0699C390.919 14.6722 389.314 13.4967 387.6 12.6365C385.672 11.8911 383.637 11.4539 381.386 11.4539L381.393 11.461Z" fill="#2B7A78"/>
</svg>
