<svg width="244" height="92" viewBox="0 0 244 92" fill="none" xmlns="http://www.w3.org/2000/svg">
<path d="M76.744 52.7498V70.1439H74.5693V52.7498H76.744ZM84.1829 52.7498H86.6778L79.4371 60.9746L87.297 70.1439H84.7014L76.991 61.0512L84.1829 52.7528V52.7498Z" fill="#2B7A78"/>
<path d="M101.8 57.6196V70.1439H99.7472V68.1046C99.2287 68.8007 98.5851 69.3496 97.7952 69.7698C97.0052 70.193 96.1421 70.3923 95.1752 70.3923C94.2084 70.3923 93.4215 70.2175 92.6803 69.8955C91.8873 69.5735 91.2468 69.1012 90.6795 68.5278C90.1092 67.9543 89.6913 67.2612 89.3711 66.4639C89.0508 65.6696 88.9014 64.7987 88.9014 63.8542C88.9014 62.9096 89.0508 62.0663 89.3711 61.2966C89.6913 60.4992 90.1122 59.8062 90.6795 59.2327C91.2468 58.6592 91.8904 58.19 92.6803 57.865C93.4215 57.543 94.2602 57.3682 95.1752 57.3682C96.139 57.3682 97.0052 57.5675 97.7952 57.9662C98.5882 58.3863 99.2287 58.9352 99.7472 59.6314V57.6196H101.8ZM95.4253 59.1622C94.8062 59.1622 94.2145 59.2879 93.6716 59.5118C93.1531 59.7356 92.6834 60.0576 92.2869 60.5054C91.9148 60.904 91.6189 61.3978 91.3963 61.9958C91.1736 62.5416 91.076 63.1887 91.076 63.8848C91.076 64.581 91.1736 65.225 91.3963 65.7739C91.6189 66.3688 91.9148 66.8656 92.2869 67.2643C92.6834 67.712 93.1531 68.034 93.6716 68.2579C94.1901 68.4818 94.7818 68.6075 95.4253 68.6075C96.0689 68.6075 96.6606 68.4818 97.1791 68.2579C97.6976 68.034 98.1673 67.712 98.5394 67.2643C98.9115 66.8656 99.2073 66.3688 99.43 65.7739C99.6496 65.228 99.7502 64.581 99.7502 63.8848C99.7502 63.1887 99.6526 62.5447 99.43 61.9958C99.2073 61.3978 98.9115 60.904 98.5394 60.5054C98.1673 60.0576 97.6976 59.7356 97.1791 59.5118C96.6606 59.2879 96.0689 59.1622 95.4253 59.1622Z" fill="#2B7A78"/>
<path d="M110.819 70.1929C109.931 70.1929 109.114 70.0426 108.324 69.6961C107.583 69.3986 106.915 68.9509 106.347 68.356C105.804 67.8101 105.384 67.114 105.06 66.3442C104.74 65.5745 104.591 64.7036 104.591 63.7866C104.591 62.8697 104.74 61.9988 105.06 61.229C105.381 60.4593 105.801 59.7632 106.347 59.2173C106.915 58.6193 107.58 58.1746 108.324 57.8772C109.117 57.5276 109.931 57.3804 110.819 57.3804C111.782 57.3804 112.673 57.5797 113.439 57.9784C114.204 58.3494 114.848 58.8984 115.366 59.5945V57.6318H117.416L117.44 70.104C117.44 70.9473 117.291 71.6956 116.971 72.3917C116.65 73.0357 116.205 73.6092 115.613 74.0814C115.019 74.5537 114.302 74.9002 113.463 75.1486C112.6 75.397 111.633 75.5228 110.572 75.5228C110.102 75.5228 109.611 75.5228 109.016 75.4737C108.473 75.4737 107.778 75.4001 106.988 75.2989L107.113 73.4344C107.753 73.5601 108.373 73.6337 109.016 73.6828C109.611 73.7318 110.178 73.7564 110.669 73.7564C112.179 73.7564 113.314 73.4344 114.155 72.7873C114.948 72.1678 115.366 71.2724 115.366 70.1285V67.991C114.848 68.6626 114.204 69.2085 113.414 69.6072C112.649 70.0058 111.782 70.2052 110.819 70.2052V70.1929ZM111.09 59.1621C110.474 59.1621 109.879 59.2602 109.361 59.5117C108.842 59.711 108.373 60.033 107.976 60.4562C107.604 60.8794 107.311 61.3517 107.089 61.8976C106.866 62.471 106.768 63.0905 106.768 63.7621C106.768 64.4337 106.866 65.0777 107.089 65.6266C107.311 66.2216 107.607 66.6938 107.976 67.117C108.348 67.5157 108.818 67.8377 109.336 68.0616C109.855 68.2854 110.447 68.4112 111.066 68.4112C111.685 68.4112 112.277 68.2854 112.798 68.0616C113.317 67.8377 113.783 67.5157 114.155 67.117C114.527 66.6938 114.823 66.2216 115.046 65.6266C115.269 65.0808 115.366 64.4337 115.366 63.7621C115.366 63.0905 115.269 62.471 115.046 61.8976C114.823 61.3517 114.527 60.8794 114.155 60.4562C113.783 60.033 113.317 59.711 112.823 59.5117C112.28 59.2633 111.709 59.1621 111.09 59.1621Z" fill="#2B7A78"/>
<path d="M133.056 57.6196V70.1439H131.004V68.1046C130.485 68.8007 129.841 69.3496 129.052 69.7698C128.259 70.193 127.395 70.3923 126.432 70.3923C125.517 70.3923 124.678 70.2175 123.934 69.8955C123.144 69.5735 122.503 69.1012 121.933 68.5278C121.362 67.9543 120.945 67.2612 120.621 66.4639C120.301 65.6696 120.152 64.7987 120.152 63.8542C120.152 62.9096 120.301 62.0663 120.621 61.2966C120.942 60.4992 121.362 59.8062 121.933 59.2327C122.503 58.6592 123.144 58.19 123.934 57.865C124.675 57.543 125.517 57.3682 126.432 57.3682C127.395 57.3682 128.262 57.5675 129.052 57.9662C129.841 58.3863 130.482 58.9352 131.004 59.6314V57.6196H133.056ZM126.682 59.1622C126.066 59.1622 125.471 59.2879 124.928 59.5118C124.409 59.7356 123.94 60.0576 123.543 60.5054C123.171 60.904 122.878 61.3978 122.656 61.9958C122.433 62.5416 122.335 63.1887 122.335 63.8848C122.335 64.581 122.433 65.225 122.656 65.7739C122.878 66.3688 123.174 66.8656 123.543 67.2643C123.937 67.712 124.406 68.034 124.928 68.2579C125.446 68.4818 126.041 68.6075 126.682 68.6075C127.322 68.6075 127.917 68.4818 128.435 68.2579C128.954 68.034 129.424 67.712 129.796 67.2643C130.165 66.8656 130.461 66.3688 130.683 65.7739C130.906 65.228 131.004 64.581 131.004 63.8848C131.004 63.1887 130.906 62.5447 130.683 61.9958C130.461 61.3978 130.165 60.904 129.796 60.5054C129.424 60.0576 128.957 59.7356 128.435 59.5118C127.917 59.2879 127.322 59.1622 126.682 59.1622Z" fill="#2B7A78"/>
<path d="M150.158 70.4168L145.537 61.3487L140.864 70.3923L135.106 57.6196H137.406L141.185 66.0928L145.189 57.6196H145.906L149.932 66.0928L153.662 57.6196H155.937L150.155 70.4168H150.158Z" fill="#2B7A78"/>
<path d="M169.431 57.6196V70.1439H167.378V68.1046C166.859 68.8007 166.219 69.3496 165.426 69.7698C164.633 70.193 163.77 70.3923 162.806 70.3923C161.842 70.3923 161.049 70.2175 160.308 69.8955C159.518 69.5735 158.874 69.1012 158.307 68.5278C157.737 67.9543 157.319 67.2612 156.999 66.4639C156.678 65.6696 156.529 64.7987 156.529 63.8542C156.529 62.9096 156.678 62.0663 156.999 61.2966C157.319 60.4992 157.74 59.8062 158.307 59.2327C158.878 58.6592 159.518 58.19 160.308 57.865C161.049 57.543 161.891 57.3682 162.806 57.3682C163.77 57.3682 164.633 57.5675 165.426 57.9662C166.219 58.3863 166.859 58.9352 167.378 59.6314V57.6196H169.431ZM163.056 59.1622C162.437 59.1622 161.845 59.2879 161.299 59.5118C160.781 59.7356 160.311 60.0576 159.918 60.5054C159.545 60.904 159.25 61.3978 159.027 61.9958C158.804 62.5416 158.707 63.1887 158.707 63.8848C158.707 64.581 158.804 65.225 159.027 65.7739C159.25 66.3688 159.545 66.8656 159.918 67.2643C160.311 67.712 160.781 68.034 161.299 68.2579C161.818 68.4818 162.412 68.6075 163.056 68.6075C163.7 68.6075 164.288 68.4818 164.81 68.2579C165.328 68.034 165.798 67.712 166.17 67.2643C166.539 66.8656 166.835 66.3688 167.058 65.7739C167.277 65.228 167.378 64.581 167.378 63.8848C167.378 63.1887 167.28 62.5447 167.058 61.9958C166.835 61.3978 166.539 60.904 166.17 60.5054C165.798 60.0576 165.328 59.7356 164.81 59.5118C164.291 59.2879 163.7 59.1622 163.056 59.1622Z" fill="#2B7A78"/>
<path d="M40.5162 43.884H34.77V20.5988H40.5162V23.0736C41.5654 22.1566 42.7488 21.4237 44.1183 20.9208C45.4389 20.4148 46.8968 20.1418 48.4493 20.1418C50.0017 20.1418 51.3224 20.3718 52.5058 20.8748C53.7807 21.3317 54.7841 21.9757 55.6961 22.8926C56.5165 23.7176 57.1967 24.7725 57.6999 26.0084C58.1544 27.2013 58.3862 28.5292 58.3862 30.041V43.884H52.64V30.455C52.64 28.7592 52.1855 27.4742 51.2248 26.4653C50.2701 25.5484 48.9922 25.0424 47.3482 25.0424C45.2529 25.0424 43.5662 25.7293 42.3798 27.1062C41.1049 28.5292 40.5132 30.409 40.5132 32.7428V43.8809L40.5162 43.884Z" fill="#2B7A78"/>
<path d="M73.8924 44.3409C72.0716 44.3409 70.3819 44.0189 68.8782 43.424C67.3288 42.829 66.0051 41.9581 64.8675 40.9032C63.7725 39.8482 62.9063 38.5664 62.2689 37.1005C61.6314 35.5886 61.3142 33.9848 61.3142 32.2429C61.3142 30.501 61.6345 28.8941 62.2231 27.3822C62.8636 25.9164 63.7298 24.6314 64.8675 23.5796C66.0082 22.5246 67.3288 21.6568 68.8782 21.0588C70.3819 20.4638 72.0685 20.1418 73.8924 20.1418C75.7163 20.1418 77.403 20.4178 78.9066 21.0588C80.4133 21.6108 81.734 22.4817 82.8716 23.5336C84.0123 24.6345 84.8785 25.9194 85.4702 27.3853C86.1077 28.8972 86.4279 30.501 86.4279 32.246C86.4279 33.9909 86.1077 35.5917 85.4702 37.1036C84.8785 38.5725 84.0123 39.8544 82.9174 40.9553C81.7797 42.0102 80.456 42.8781 78.9066 43.4301C77.403 44.071 75.7163 44.347 73.8924 44.347V44.3409ZM73.8924 25.0454C71.9343 25.0454 70.3819 25.6894 69.1527 27.0173C67.9236 28.3452 67.3288 30.087 67.3288 32.2429C67.3288 34.3988 67.9236 36.0946 69.1527 37.4654C70.3361 38.7504 71.9343 39.4373 73.8924 39.4373C75.8505 39.4373 77.4487 38.7504 78.6352 37.4654C79.8643 36.0916 80.4591 34.3957 80.4591 32.2429C80.4591 30.0901 79.8643 28.3452 78.6352 27.0173C77.403 25.6894 75.8536 25.0454 73.8924 25.0454Z" fill="#2B7A78"/>
<path d="M95.3277 43.884H89.5815V20.5988H95.3277V23.0736C96.2824 22.1566 97.4231 21.4237 98.7468 20.9208C100.022 20.4148 101.437 20.1418 102.989 20.1418C104.856 20.1418 106.5 20.5098 107.912 21.2428C109.324 21.9757 110.419 22.9846 111.237 24.3156C112.286 22.9877 113.561 21.9788 115.067 21.2428C116.617 20.5098 118.349 20.1418 120.261 20.1418C121.768 20.1418 123.135 20.3718 124.364 20.8748C125.593 21.3317 126.688 21.9757 127.554 22.8926C128.42 23.7176 129.103 24.7725 129.649 26.0084C130.104 27.2013 130.378 28.5292 130.378 30.041V43.884H124.635V30.455C124.635 28.7592 124.181 27.4742 123.177 26.4653C122.265 25.5484 120.945 25.0424 119.301 25.0424C118.435 25.0424 117.66 25.1804 116.888 25.4564C116.113 25.7293 115.473 26.0973 114.881 26.6462C114.29 27.1032 113.878 27.7012 113.515 28.3881C113.243 29.029 113.06 29.762 113.06 30.5409V43.8809H107.272V30.452C107.272 28.7561 106.817 27.4712 105.905 26.4622C104.993 25.5453 103.718 25.0393 102.077 25.0393C99.979 25.0393 98.3381 25.7262 97.109 27.1032C95.9225 28.431 95.3308 30.2649 95.3308 32.5588V43.8809L95.3277 43.884Z" fill="#2B7A78"/>
<path d="M146.031 44.3409C144.207 44.3409 142.52 44.0189 141.017 43.424C139.467 42.829 138.147 41.9581 137.006 40.9032C135.914 39.8482 135.045 38.5664 134.407 37.1005C133.77 35.5886 133.45 33.9848 133.45 32.2429C133.45 30.501 133.77 28.8941 134.362 27.3822C135.002 25.9164 135.868 24.6314 137.006 23.5796C138.147 22.5246 139.47 21.6568 141.017 21.0588C142.523 20.4638 144.207 20.1418 146.031 20.1418C147.855 20.1418 149.542 20.4178 151.045 21.0588C152.549 21.6108 153.873 22.4817 155.01 23.5336C156.151 24.6345 157.017 25.9194 157.609 27.3853C158.249 28.8972 158.566 30.501 158.566 32.246C158.566 33.9909 158.249 35.5917 157.609 37.1036C157.017 38.5725 156.151 39.8544 155.056 40.9553C153.915 42.0102 152.595 42.8781 151.045 43.4301C149.538 44.071 147.855 44.347 146.031 44.347V44.3409ZM146.031 25.0454C144.07 25.0454 142.52 25.6894 141.291 27.0173C140.059 28.3452 139.467 30.087 139.467 32.2429C139.467 34.3988 140.059 36.0946 141.291 37.4654C142.475 38.7504 144.07 39.4373 146.031 39.4373C147.992 39.4373 149.587 38.7504 150.774 37.4654C152.006 36.0916 152.598 34.3957 152.598 32.2429C152.598 30.0901 152.006 28.3452 150.774 27.0173C149.542 25.6894 147.995 25.0454 146.031 25.0454Z" fill="#2B7A78"/>
<path d="M174.121 25.0454C172.069 25.0454 170.382 25.6894 169.153 27.0173C167.875 28.3451 167.238 30.087 167.238 32.2429C167.238 33.2978 167.421 34.2607 167.741 35.1317C168.058 36.0026 168.561 36.7815 169.156 37.3765C169.748 38.0174 170.522 38.5234 171.343 38.8424C172.255 39.2104 173.167 39.3944 174.216 39.3944C175.357 39.3944 176.449 39.2104 177.498 38.7994C178.547 38.3854 179.459 37.8365 180.142 37.1495L182.466 41.0473C181.326 42.0072 179.959 42.8351 178.456 43.4301C176.906 44.025 175.402 44.347 173.942 44.347C172.072 44.347 170.385 44.025 168.836 43.4301C167.286 42.8351 165.963 41.9642 164.825 40.9093C163.684 39.8543 162.818 38.5725 162.181 37.1066C161.543 35.5948 161.226 33.9909 161.226 32.249C161.226 30.5072 161.546 28.9002 162.181 27.3883C162.821 25.9225 163.687 24.6376 164.825 23.5857C165.966 22.5308 167.286 21.6629 168.836 21.0649C170.385 20.47 172.072 20.1479 173.896 20.1479C175.402 20.1479 176.815 20.378 178.09 20.7889C179.456 21.2029 180.642 21.8438 181.692 22.6227L179.868 27.5294C179.184 26.7965 178.361 26.1985 177.361 25.7416C176.357 25.2846 175.262 25.0546 174.125 25.0546L174.121 25.0454Z" fill="#2B7A78"/>
<path d="M209.23 20.5989V43.8841H203.484V41.6393C202.572 42.5102 201.523 43.1512 200.339 43.6112C199.11 44.1172 197.786 44.3441 196.374 44.3441C194.642 44.3441 193.047 44.0221 191.631 43.4272C190.219 42.8322 188.987 41.9613 187.941 40.9064C186.938 39.8514 186.163 38.5696 185.568 37.1037C184.976 35.5918 184.702 33.988 184.702 32.2001C184.702 30.4122 184.976 28.8544 185.568 27.3854C186.163 25.9196 186.934 24.6346 187.987 23.5828C189.036 22.5278 190.265 21.66 191.677 21.062C193.089 20.467 194.688 20.145 196.371 20.145C197.786 20.145 199.107 20.375 200.336 20.878C201.523 21.3349 202.569 21.9789 203.481 22.8008V20.602H209.227L209.23 20.5989ZM197.057 25.0456C195.145 25.0456 193.593 25.6896 192.409 27.0174C191.269 28.3453 190.677 30.0872 190.677 32.243C190.677 33.298 190.814 34.3038 191.131 35.1778C191.448 36.0488 191.86 36.8277 192.406 37.4686C192.998 38.0666 193.681 38.5696 194.456 38.9376C195.23 39.2596 196.1 39.4436 197.054 39.4436C198.009 39.4436 198.878 39.2596 199.699 38.9376C200.428 38.5726 201.111 38.0666 201.703 37.4686C202.252 36.8277 202.66 36.0488 202.977 35.1778C203.298 34.3069 203.432 33.298 203.432 32.243C203.432 31.1881 203.295 30.1792 202.977 29.3082C202.66 28.4373 202.249 27.6584 201.703 27.0174C201.111 26.4194 200.428 25.9165 199.699 25.5485C198.878 25.2296 198.012 25.0425 197.054 25.0425L197.057 25.0456Z" fill="#2B7A78"/>
</svg>
