<svg width="156" height="128" viewBox="0 0 156 128" fill="none" xmlns="http://www.w3.org/2000/svg">
<g clip-path="url(#clip0_5_1553)">
<path d="M155.29 59.23C155.52 27.65 122.1 0.17 77.6502 0C33.2002 0.16 -0.229797 27.65 0.000203041 59.23C-0.229797 90.8 33.2002 118.29 77.6502 118.46C80.0902 118.46 82.4802 118.35 84.8502 118.18C90.4502 122.75 96.4802 125.5 106.41 127.08C102.86 123.27 100.3 119.86 98.3602 116.31C132.08 109.24 155.49 85.68 155.3 59.24L155.29 59.23Z" fill="#FF6F61"/>
<path d="M54.1504 40.9299H45.8804V29.9399H66.4204V92.0699H54.1504V40.9399V40.9299ZM91.6304 77.3699V79.1199H98.3904V84.1299H91.6304V90.1499H86.2704V84.1299H79.5904V79.1199H86.2704V77.3699H80.5604V62.5699H86.2704V60.8199H80.0504V55.8899H86.2704V52.3499H91.6704V55.8899H97.6504V60.8199H91.6704V62.5699H97.5804V77.3699H91.6404H91.6304ZM84.9104 66.4899V68.1199H86.8904V66.4899H84.9104ZM84.9104 71.7699V73.3999H86.8904V71.7699H84.9104ZM93.0304 68.1199V66.4899H91.0104V68.1199H93.0304ZM93.0304 73.3999V71.7699H91.0104V73.3999H93.0304ZM117.39 68.2299V73.5899H110.59V90.1799H104.88V73.5899H98.0404V68.2299H104.88V59.7999H98.8204V54.4399H116.57V59.7999H110.59V68.2299H117.39Z" fill="white"/>
</g>
<defs>
<clipPath id="clip0_5_1553">
<rect width="155.29" height="127.06" fill="white"/>
</clipPath>
</defs>
</svg>
