<svg width="294" height="294" viewBox="0 0 294 294" fill="none" xmlns="http://www.w3.org/2000/svg">
<path d="M201.949 36.75H92.0514C88.4132 36.75 85.5944 39.9399 86.0465 43.5487L101.967 171.255C103.231 181.387 111.882 189.027 122.091 189.027H171.905C182.115 189.027 190.769 181.387 192.033 171.255L207.954 43.5487C208.406 39.9362 205.587 36.75 201.949 36.75Z" fill="#2B7A78"/>
<path d="M184.184 42.178L161.432 43.6259L155.474 49.4251L150.789 62.0561L154.787 76.9949L177.348 81.9305L187.98 77.9357L193.775 62.7764L184.184 42.1743V42.178ZM181.997 68.6784L175.463 71.2583L164.607 65.9993L166.411 55.5256L175.463 51.3986L181.997 58.3627V68.6784Z" fill="#FAF8F4"/>
<path d="M181.74 89.5708H167.157L160.601 93.5508L154.126 104.047L157.382 118.706L166.974 126.126L180.487 127.574L192.202 117.828L193.974 98.7987L181.736 89.5708H181.74ZM180.042 114.756H170.803L167.437 108.243L172.122 101.731L181.593 104.785L180.042 114.756Z" fill="#FAF8F4"/>
<path d="M138.886 139.216L139.319 151.553L131.572 149.477L125.001 150.752L121.767 154.773L120.511 160.737L122.58 165.004L127.217 167.804L132.282 168.333L139.433 165.302L141.833 163.159L144.358 175.779L141.579 176.878L133.465 179.965H125.167L119.794 178.649L115.391 176.896L111.393 172.582L107.446 163.696L106.851 156.706L109.5 148.172L111.816 143.976L115.884 141.3L123.66 139.216L128.654 138.14L135.861 138.518L138.886 139.216Z" fill="#FAF8F4"/>
<path d="M109.533 46.9444L112.892 85.8517L123.763 84.9145L121.712 61.1557L125.251 56.3635L130.94 55.6909L134.755 60.3913L136.776 83.79L147.827 82.8382L145.254 53.0192L137.254 45.6288L127.001 45.4377L119.963 47.1208L120.298 44.7578L109.533 46.9444Z" fill="#FAF8F4"/>
<path d="M101.625 93.3267C101.735 94.2675 100.717 128.382 100.717 128.382L110.463 128.816L111.466 110.507L113.466 107.799L116.284 106.722L119.415 108.016L121.426 111.54L120.444 129.382L131.19 129.794L132.936 111.566L135.306 108.361L137.541 108.192L141.333 110.14L142.325 114.697L141.484 130.374L151.076 130.801L152.259 106.197L146.081 98.5782L138.768 95.109L131.815 97.1119L128.107 99.7395L119.61 94.9694L114.778 95.0502L111.602 96.2997L112.032 93.8265L101.617 93.3267H101.625Z" fill="#FAF8F4"/>
<path d="M176.529 137.68L176.169 140.572L167.937 135.222L154.931 138.731L145.085 149.613L146.938 164.052L157.051 172.413L170.189 172.883L169.837 174.779L179.428 176.554L186.319 139.319L176.529 137.68ZM167.102 161.774L160.432 160.539L157.625 155.64L159.903 150.491L164.019 148.334L170.436 150.352L171.237 157.367L167.102 161.777V161.774Z" fill="#FAF8F4"/>
<path d="M103.995 235.74V252.179H101.93V235.74H103.995ZM111.062 235.74H113.432L106.553 243.513L114.02 252.179H111.555L104.227 243.583L111.062 235.74Z" fill="#2B7A78"/>
<path d="M127.805 240.341V252.179H125.854V250.253C125.362 250.911 124.752 251.429 123.998 251.826C123.248 252.226 122.425 252.414 121.51 252.414C120.595 252.414 119.842 252.248 119.14 251.943C118.386 251.638 117.776 251.194 117.236 250.653C116.696 250.113 116.299 249.455 115.99 248.702C115.685 247.952 115.542 247.129 115.542 246.236C115.542 245.343 115.682 244.546 115.99 243.818C116.295 243.065 116.692 242.41 117.236 241.867C117.776 241.326 118.386 240.882 119.14 240.577C119.842 240.272 120.643 240.106 121.51 240.106C122.425 240.106 123.248 240.294 123.998 240.672C124.752 241.069 125.362 241.587 125.854 242.245V240.341H127.805ZM121.745 241.797C121.157 241.797 120.595 241.914 120.077 242.127C119.584 242.341 119.14 242.642 118.761 243.065C118.408 243.439 118.126 243.91 117.916 244.472C117.703 244.99 117.611 245.6 117.611 246.258C117.611 246.916 117.707 247.526 117.916 248.044C118.129 248.606 118.408 249.077 118.761 249.452C119.136 249.874 119.584 250.179 120.077 250.389C120.569 250.598 121.132 250.72 121.745 250.72C122.359 250.72 122.918 250.602 123.41 250.389C123.903 250.176 124.351 249.874 124.704 249.452C125.057 249.077 125.34 248.606 125.549 248.044C125.758 247.526 125.854 246.916 125.854 246.258C125.854 245.6 125.758 244.99 125.549 244.472C125.336 243.906 125.057 243.439 124.704 243.065C124.351 242.642 123.903 242.337 123.41 242.127C122.918 241.914 122.355 241.797 121.745 241.797Z" fill="#2B7A78"/>
<path d="M136.372 252.223C135.527 252.223 134.755 252.083 134.001 251.752C133.296 251.469 132.664 251.05 132.124 250.484C131.605 249.966 131.208 249.312 130.9 248.581C130.595 247.853 130.451 247.03 130.451 246.163C130.451 245.295 130.591 244.472 130.9 243.744C131.205 243.017 131.605 242.359 132.124 241.841C132.664 241.275 133.296 240.856 134.001 240.573C134.755 240.242 135.527 240.103 136.372 240.103C137.287 240.103 138.136 240.29 138.863 240.668C139.591 241.021 140.201 241.536 140.697 242.194V240.338H142.645L142.667 252.127C142.667 252.925 142.527 253.63 142.219 254.288C141.914 254.898 141.491 255.438 140.929 255.887C140.363 256.331 139.683 256.662 138.886 256.897C138.066 257.132 137.147 257.25 136.137 257.25C135.692 257.25 135.222 257.25 134.659 257.202C134.141 257.202 133.483 257.132 132.734 257.037L132.851 255.277C133.461 255.394 134.049 255.464 134.659 255.512C135.225 255.56 135.762 255.582 136.232 255.582C137.665 255.582 138.746 255.277 139.543 254.667C140.297 254.082 140.694 253.233 140.694 252.153V250.132C140.201 250.767 139.587 251.282 138.838 251.657C138.11 252.032 137.287 252.223 136.372 252.223ZM136.633 241.797C136.048 241.797 135.482 241.892 134.99 242.127C134.498 242.315 134.049 242.62 133.674 243.02C133.322 243.421 133.042 243.866 132.829 244.384C132.616 244.924 132.524 245.512 132.524 246.144C132.524 246.776 132.62 247.39 132.829 247.905C133.042 248.467 133.322 248.915 133.674 249.312C134.027 249.687 134.476 249.992 134.968 250.205C135.46 250.418 136.023 250.536 136.611 250.536C137.199 250.536 137.761 250.418 138.257 250.205C138.75 249.992 139.194 249.691 139.547 249.312C139.9 248.912 140.183 248.467 140.392 247.905C140.605 247.386 140.697 246.776 140.697 246.144C140.697 245.512 140.602 244.924 140.392 244.384C140.179 243.869 139.9 243.421 139.547 243.02C139.194 242.62 138.75 242.319 138.279 242.127C137.761 241.892 137.221 241.797 136.633 241.797Z" fill="#2B7A78"/>
<path d="M157.507 240.341V252.179H155.555V250.253C155.063 250.911 154.453 251.429 153.703 251.826C152.95 252.226 152.127 252.414 151.212 252.414C150.344 252.414 149.543 252.248 148.838 251.943C148.088 251.638 147.478 251.194 146.938 250.653C146.397 250.113 145.997 249.455 145.692 248.702C145.387 247.952 145.247 247.129 145.247 246.236C145.247 245.343 145.387 244.546 145.692 243.818C145.997 243.065 146.397 242.41 146.938 241.867C147.478 241.323 148.088 240.882 148.838 240.577C149.543 240.272 150.341 240.106 151.212 240.106C152.127 240.106 152.95 240.294 153.703 240.672C154.453 241.069 155.063 241.587 155.555 242.245V240.341H157.507ZM151.447 241.797C150.862 241.797 150.297 241.914 149.778 242.127C149.286 242.341 148.838 242.642 148.463 243.065C148.11 243.439 147.831 243.91 147.617 244.472C147.404 244.99 147.312 245.6 147.312 246.258C147.312 246.916 147.408 247.526 147.617 248.044C147.831 248.606 148.11 249.077 148.463 249.452C148.838 249.874 149.282 250.179 149.778 250.389C150.274 250.598 150.837 250.72 151.447 250.72C152.057 250.72 152.619 250.602 153.115 250.389C153.611 250.176 154.052 249.874 154.405 249.452C154.758 249.077 155.037 248.606 155.25 248.044C155.464 247.526 155.555 246.916 155.555 246.258C155.555 245.6 155.46 244.99 155.25 244.472C155.037 243.906 154.758 243.439 154.405 243.065C154.052 242.642 153.608 242.337 153.115 242.127C152.623 241.918 152.057 241.797 151.447 241.797Z" fill="#2B7A78"/>
<path d="M173.754 252.436L169.362 243.866L164.923 252.414L159.451 240.341H161.634L165.224 248.349L169.028 240.341H169.712L173.537 248.349L177.084 240.341H179.244L173.75 252.436H173.754Z" fill="#2B7A78"/>
<path d="M192.07 240.341V252.179H190.119V250.253C189.626 250.911 189.016 251.429 188.266 251.826C187.513 252.226 186.694 252.414 185.778 252.414C184.863 252.414 184.11 252.248 183.404 251.943C182.655 251.638 182.041 251.194 181.501 250.653C180.961 250.113 180.564 249.455 180.255 248.702C179.95 247.952 179.81 247.129 179.81 246.236C179.81 245.343 179.95 244.546 180.255 243.818C180.56 243.065 180.957 242.41 181.501 241.867C182.041 241.326 182.651 240.882 183.404 240.577C184.106 240.272 184.908 240.106 185.778 240.106C186.694 240.106 187.513 240.294 188.266 240.672C189.02 241.069 189.63 241.587 190.119 242.245V240.341H192.07ZM186.014 241.797C185.426 241.797 184.863 241.914 184.345 242.127C183.853 242.341 183.408 242.642 183.033 243.065C182.68 243.439 182.398 243.91 182.188 244.472C181.975 244.99 181.883 245.6 181.883 246.258C181.883 246.916 181.979 247.526 182.188 248.044C182.401 248.606 182.68 249.077 183.033 249.452C183.408 249.874 183.853 250.179 184.345 250.389C184.838 250.602 185.404 250.72 186.014 250.72C186.624 250.72 187.186 250.602 187.678 250.389C188.171 250.176 188.619 249.874 188.972 249.452C189.325 249.077 189.604 248.606 189.817 248.044C190.027 247.526 190.122 246.916 190.122 246.258C190.122 245.6 190.027 244.99 189.817 244.472C189.604 243.906 189.325 243.439 188.972 243.065C188.619 242.642 188.171 242.337 187.678 242.127C187.186 241.918 186.624 241.797 186.014 241.797Z" fill="#2B7A78"/>
<path d="M69.5677 227.358H64.1067V205.352H69.5677V207.693C70.5637 206.825 71.6919 206.134 72.9892 205.657C74.246 205.179 75.6315 204.918 77.1052 204.918C78.5788 204.918 79.8357 205.135 80.9602 205.613C82.173 206.046 83.1248 206.653 83.9921 207.52C84.7712 208.299 85.418 209.295 85.8958 210.464C86.3294 211.592 86.5462 212.845 86.5462 214.275V227.358H81.0852V214.664C81.0852 213.062 80.6515 211.849 79.7401 210.894C78.8324 210.026 77.616 209.548 76.0578 209.548C74.0659 209.548 72.4636 210.199 71.3354 211.5C70.1227 212.845 69.5604 214.62 69.5604 216.829V227.358H69.5677Z" fill="#2B7A78"/>
<path d="M101.283 227.791C99.552 227.791 97.9497 227.486 96.5201 226.924C95.0464 226.362 93.7896 225.538 92.7091 224.542C91.6691 223.547 90.8459 222.334 90.2395 220.948C89.6368 219.519 89.3318 218.005 89.3318 216.358C89.3318 214.712 89.6368 213.194 90.1954 211.764C90.8018 210.379 91.625 209.166 92.7091 208.17C93.7932 207.174 95.0501 206.351 96.5201 205.789C97.9497 205.227 99.552 204.922 101.283 204.922C103.014 204.922 104.62 205.183 106.049 205.789C107.479 206.311 108.736 207.134 109.816 208.13C110.9 209.17 111.724 210.383 112.286 211.768C112.892 213.198 113.197 214.712 113.197 216.362C113.197 218.012 112.892 219.522 112.286 220.952C111.724 222.337 110.9 223.55 109.86 224.59C108.78 225.586 107.523 226.409 106.049 226.931C104.62 227.538 103.017 227.799 101.283 227.799V227.791ZM101.283 209.552C99.4233 209.552 97.9497 210.159 96.7773 211.415C95.6087 212.672 95.0427 214.319 95.0427 216.355C95.0427 218.391 95.6087 219.993 96.7773 221.29C97.9019 222.503 99.4197 223.153 101.283 223.153C103.146 223.153 104.664 222.503 105.788 221.29C106.957 219.993 107.523 218.387 107.523 216.355C107.523 214.322 106.957 212.672 105.788 211.415C104.62 210.159 103.146 209.552 101.283 209.552Z" fill="#2B7A78"/>
<path d="M121.653 227.358H116.192V205.352H121.653V207.693C122.561 206.825 123.645 206.134 124.902 205.657C126.115 205.179 127.456 204.918 128.934 204.918C130.709 204.918 132.267 205.267 133.612 205.958C134.953 206.653 135.993 207.604 136.772 208.861C137.768 207.604 138.981 206.653 140.414 205.958C141.884 205.267 143.534 204.918 145.35 204.918C146.779 204.918 148.08 205.135 149.249 205.613C150.418 206.046 151.458 206.653 152.281 207.52C153.104 208.299 153.755 209.295 154.273 210.464C154.706 211.592 154.967 212.845 154.967 214.275V227.358H149.51V214.664C149.51 213.062 149.076 211.849 148.124 210.894C147.257 210.026 146 209.548 144.438 209.548C143.615 209.548 142.88 209.681 142.145 209.938C141.407 210.195 140.8 210.544 140.238 211.063C139.676 211.496 139.282 212.058 138.937 212.709C138.68 213.315 138.503 214.01 138.503 214.745V227.35H133.002V214.657C133.002 213.054 132.568 211.842 131.701 210.886C130.834 210.019 129.621 209.541 128.063 209.541C126.067 209.541 124.509 210.192 123.34 211.493C122.212 212.749 121.65 214.48 121.65 216.649V227.35L121.653 227.358Z" fill="#2B7A78"/>
<path d="M169.836 227.791C168.102 227.791 166.503 227.486 165.07 226.924C163.6 226.362 162.343 225.538 161.259 224.542C160.223 223.547 159.396 222.334 158.789 220.948C158.183 219.519 157.878 218.005 157.878 216.358C157.878 214.712 158.183 213.194 158.745 211.764C159.352 210.379 160.175 209.166 161.259 208.17C162.343 207.174 163.6 206.351 165.07 205.789C166.499 205.227 168.102 204.922 169.836 204.922C171.571 204.922 173.17 205.183 174.603 205.789C176.032 206.311 177.289 207.134 178.37 208.13C179.454 209.17 180.277 210.383 180.839 211.768C181.446 213.198 181.751 214.712 181.751 216.362C181.751 218.012 181.449 219.522 180.839 220.952C180.277 222.337 179.454 223.55 178.414 224.59C177.33 225.586 176.073 226.409 174.603 226.931C173.173 227.538 171.571 227.799 169.836 227.799V227.791ZM169.836 209.552C167.973 209.552 166.503 210.159 165.331 211.415C164.162 212.672 163.596 214.319 163.596 216.355C163.596 218.391 164.159 219.993 165.331 221.29C166.455 222.503 167.973 223.153 169.836 223.153C171.7 223.153 173.214 222.503 174.342 221.29C175.511 219.993 176.077 218.387 176.077 216.355C176.077 214.322 175.514 212.672 174.342 211.415C173.173 210.159 171.7 209.552 169.836 209.552Z" fill="#2B7A78"/>
<path d="M196.528 209.552C194.577 209.552 192.974 210.158 191.806 211.415C190.593 212.672 189.987 214.319 189.987 216.355C189.987 217.35 190.159 218.262 190.464 219.085C190.766 219.908 191.243 220.643 191.809 221.209C192.372 221.816 193.11 222.293 193.889 222.595C194.757 222.944 195.624 223.117 196.62 223.117C197.704 223.117 198.744 222.944 199.74 222.554C200.736 222.165 201.603 221.643 202.254 220.996L204.462 224.678C203.378 225.586 202.081 226.369 200.651 226.931C199.178 227.493 197.748 227.798 196.363 227.798C194.588 227.798 192.985 227.493 191.512 226.931C190.038 226.369 188.781 225.546 187.701 224.55C186.617 223.554 185.793 222.341 185.187 220.956C184.584 219.526 184.279 218.012 184.279 216.366C184.279 214.719 184.584 213.201 185.187 211.772C185.793 210.386 186.617 209.174 187.701 208.178C188.785 207.182 190.042 206.359 191.512 205.796C192.985 205.234 194.588 204.929 196.319 204.929C197.748 204.929 199.093 205.146 200.306 205.535C201.607 205.925 202.731 206.531 203.727 207.27L201.993 211.908C201.342 211.213 200.563 210.651 199.611 210.217C198.66 209.784 197.62 209.567 196.535 209.567L196.528 209.552Z" fill="#2B7A78"/>
<path d="M229.89 205.352V227.358H224.429V225.233C223.561 226.057 222.565 226.663 221.441 227.097C220.272 227.574 219.015 227.791 217.674 227.791C216.028 227.791 214.513 227.486 213.168 226.924C211.827 226.362 210.655 225.538 209.659 224.542C208.703 223.547 207.968 222.334 207.406 220.948C206.844 219.519 206.583 218.005 206.583 216.314C206.583 214.624 206.844 213.154 207.406 211.764C207.972 210.379 208.707 209.166 209.703 208.17C210.699 207.174 211.867 206.351 213.212 205.789C214.554 205.227 216.072 204.922 217.674 204.922C219.019 204.922 220.272 205.138 221.441 205.616C222.569 206.05 223.565 206.656 224.429 207.435V205.355H229.89V205.352ZM218.324 209.552C216.505 209.552 215.032 210.159 213.907 211.415C212.823 212.672 212.261 214.319 212.261 216.355C212.261 217.35 212.389 218.302 212.694 219.126C212.996 219.949 213.385 220.684 213.907 221.29C214.469 221.856 215.12 222.33 215.855 222.676C216.593 222.981 217.417 223.153 218.324 223.153C219.232 223.153 220.059 222.981 220.838 222.676C221.529 222.33 222.179 221.852 222.742 221.29C223.264 220.684 223.653 219.949 223.954 219.126C224.26 218.302 224.388 217.35 224.388 216.355C224.388 215.359 224.26 214.403 223.954 213.584C223.653 212.76 223.264 212.025 222.742 211.419C222.179 210.853 221.529 210.379 220.838 210.034C220.059 209.732 219.236 209.556 218.324 209.556V209.552Z" fill="#2B7A78"/>
</svg>
