<svg width="180" height="180" viewBox="0 0 180 180" fill="none" xmlns="http://www.w3.org/2000/svg">
<circle cx="90" cy="90" r="90" fill="#D9D9D9"/>
<circle cx="90" cy="90" r="90" fill="#FFD93B"/>
<path d="M170 90C170 134.183 134.183 170 90 170C45.8172 170 10 134.183 10 90C10 45.8172 45.8172 10 90 10C134.183 10 170 45.8172 170 90Z" fill="#D9D9D9"/>
<path d="M170 90C170 134.183 134.183 170 90 170C45.8172 170 10 134.183 10 90C10 45.8172 45.8172 10 90 10C134.183 10 170 45.8172 170 90Z" fill="#6FC8E5"/>
<path d="M170 90C170 134.183 134.183 170 90 170C45.8172 170 10 134.183 10 90C10 45.8172 45.8172 10 90 10C134.183 10 170 45.8172 170 90Z" fill="white"/>
<path d="M22 131H158V131C158 152.539 140.539 170 119 170H61C39.4609 170 22 152.539 22 131V131Z" fill="#FFD93B"/>
<path d="M54.7 157.42V152.82C54.2867 153.407 53.8333 153.98 53.34 154.54C52.8467 155.087 52.4067 155.533 52.02 155.88C51.8467 155.667 51.5867 155.427 51.24 155.16C50.9067 154.88 50.6133 154.687 50.36 154.58C50.7333 154.327 51.1333 153.973 51.56 153.52C52 153.067 52.4267 152.58 52.84 152.06C53.2533 151.54 53.5933 151.06 53.86 150.62H51.42V148.6H54.7V147.28H51.06V145.42H53.2C53.0933 145.073 52.9733 144.733 52.84 144.4C52.72 144.053 52.6067 143.753 52.5 143.5L54.12 143.02H51.52V141.18H54.62V139.26H56.96V141.18H60.06V143.02H57.38L59.04 143.44C58.9467 143.733 58.8333 144.053 58.7 144.4C58.58 144.747 58.4533 145.087 58.32 145.42H60.36V147.28H56.92V148.6H59.92V150.62H57.18C57.4067 150.887 57.6933 151.18 58.04 151.5C58.3867 151.82 58.74 152.127 59.1 152.42C59.4733 152.7 59.8133 152.927 60.12 153.1C59.9867 153.207 59.8267 153.36 59.64 153.56C59.4533 153.747 59.28 153.947 59.12 154.16C58.96 154.36 58.8333 154.533 58.74 154.68C58.5 154.493 58.2133 154.24 57.88 153.92C57.5467 153.6 57.2267 153.273 56.92 152.94V157.42H54.7ZM60.08 157.58C59.84 157.367 59.5133 157.133 59.1 156.88C58.7 156.627 58.36 156.453 58.08 156.36C58.7867 155.72 59.3467 154.98 59.76 154.14C60.1733 153.3 60.4667 152.313 60.64 151.18C60.8133 150.047 60.9 148.72 60.9 147.2V140.9C61.6067 140.9 62.3667 140.84 63.18 140.72C64.0067 140.6 64.8 140.427 65.56 140.2C66.3333 139.973 66.9933 139.707 67.54 139.4L69 141.38C68.5333 141.58 67.96 141.78 67.28 141.98C66.6 142.167 65.9 142.333 65.18 142.48C64.4733 142.627 63.82 142.72 63.22 142.76V145.52H69.02V147.68H67.14V157.52H64.84V147.68H63.2C63.1867 150 62.9133 151.96 62.38 153.56C61.8467 155.16 61.08 156.5 60.08 157.58ZM55.18 145.42H56.28C56.4533 145.02 56.62 144.587 56.78 144.12C56.9533 143.64 57.0733 143.273 57.14 143.02H54.32C54.4667 143.3 54.62 143.667 54.78 144.12C54.94 144.573 55.0733 145.007 55.18 145.42ZM77.46 157.58C77.34 157.26 77.1733 156.92 76.96 156.56C76.7467 156.2 76.5333 155.913 76.32 155.7C77.7467 155.273 78.8267 154.693 79.56 153.96C80.2933 153.227 80.7267 152.207 80.86 150.9H79.3V139.8H87.8V150.9H86.06V154.66C86.06 154.833 86.0933 154.953 86.16 155.02C86.24 155.073 86.3667 155.1 86.54 155.1H86.98C87.2333 155.1 87.4133 154.987 87.52 154.76C87.64 154.52 87.7333 153.993 87.8 153.18C88.0267 153.313 88.3467 153.453 88.76 153.6C89.1867 153.733 89.5467 153.84 89.84 153.92C89.7333 154.853 89.5933 155.56 89.42 156.04C89.2467 156.533 88.9933 156.86 88.66 157.02C88.3267 157.193 87.86 157.28 87.26 157.28H85.7C85.0333 157.28 84.5533 157.167 84.26 156.94C83.9667 156.713 83.82 156.333 83.82 155.8V150.9H83C82.88 152.62 82.38 154.033 81.5 155.14C80.6333 156.233 79.2867 157.047 77.46 157.58ZM72.24 157.5C72.12 157.367 71.9467 157.207 71.72 157.02C71.4933 156.847 71.26 156.673 71.02 156.5C70.78 156.327 70.56 156.193 70.36 156.1C71.3867 155.287 72.1533 154.287 72.66 153.1C73.18 151.9 73.52 150.5 73.68 148.9H70.86V146.78H73.82C73.8333 146.607 73.84 146.44 73.84 146.28C73.84 146.12 73.84 145.953 73.84 145.78V144.7H71.18V142.66H73.84V139.38H76.08V142.66H78.46V144.7H76.08V146.78H78.76V148.9H75.94C75.9267 148.993 75.9133 149.093 75.9 149.2C75.9 149.307 75.8933 149.413 75.88 149.52C76.12 149.853 76.4333 150.233 76.82 150.66C77.22 151.087 77.6533 151.5 78.12 151.9C78.5867 152.287 79.0333 152.613 79.46 152.88C79.2067 153.133 78.94 153.427 78.66 153.76C78.38 154.093 78.16 154.393 78 154.66C77.6 154.353 77.1667 153.967 76.7 153.5C76.2333 153.033 75.8 152.547 75.4 152.04C75.1067 153.08 74.7 154.053 74.18 154.96C73.6733 155.853 73.0267 156.7 72.24 157.5ZM81.5 148.96H85.6V147.62H81.5V148.96ZM81.5 143.06H85.6V141.72H81.5V143.06ZM81.5 146H85.6V144.68H81.5V146ZM98.72 157.56V152.38H92.3V141.96H98.72V139.26H101.24V141.96H107.7V152.38H101.24V157.56H98.72ZM101.24 150.16H105.14V148.2H101.24V150.16ZM94.86 150.16H98.72V148.2H94.86V150.16ZM101.24 146.1H105.14V144.18H101.24V146.1ZM94.86 146.1H98.72V144.18H94.86V146.1ZM117.86 154.06C117.633 153.78 117.36 153.493 117.04 153.2C116.733 152.893 116.427 152.653 116.12 152.48C117.04 151.84 117.82 151.06 118.46 150.14C119.113 149.22 119.633 148.233 120.02 147.18C120.42 146.127 120.68 145.087 120.8 144.06L122 144.24C121.973 143.947 121.953 143.653 121.94 143.36C121.927 143.053 121.92 142.74 121.92 142.42H118.28V140.12H124.2C124.08 141.92 124.147 143.56 124.4 145.04C124.653 146.507 125.16 147.827 125.92 149C126.68 150.173 127.747 151.227 129.12 152.16C128.813 152.413 128.493 152.727 128.16 153.1C127.827 153.473 127.567 153.773 127.38 154C126.207 153.147 125.193 152.14 124.34 150.98C123.487 149.807 122.853 148.427 122.44 146.84C122.027 148.307 121.433 149.653 120.66 150.88C119.9 152.093 118.967 153.153 117.86 154.06ZM121.96 157.2C120.547 157.2 119.373 157.127 118.44 156.98C117.507 156.847 116.74 156.633 116.14 156.34C115.54 156.06 115.027 155.707 114.6 155.28C114.36 155.453 114.047 155.66 113.66 155.9C113.287 156.127 112.9 156.353 112.5 156.58C112.113 156.82 111.773 157.02 111.48 157.18L110.5 154.84C110.767 154.733 111.087 154.607 111.46 154.46C111.847 154.3 112.22 154.14 112.58 153.98C112.94 153.807 113.207 153.673 113.38 153.58V148.6H111V146.52H115.66V153.28C115.913 153.92 116.52 154.373 117.48 154.64C118.453 154.907 119.947 155.04 121.96 155.04C123.667 155.04 125.133 155.013 126.36 154.96C127.587 154.893 128.58 154.807 129.34 154.7C129.273 154.847 129.2 155.08 129.12 155.4C129.04 155.707 128.973 156.027 128.92 156.36C128.867 156.693 128.833 156.96 128.82 157.16C128.447 157.16 127.96 157.16 127.36 157.16C126.76 157.173 126.12 157.18 125.44 157.18C124.773 157.193 124.133 157.2 123.52 157.2C122.907 157.2 122.387 157.2 121.96 157.2ZM114.86 144.14C114.62 143.847 114.3 143.513 113.9 143.14C113.5 142.767 113.08 142.4 112.64 142.04C112.2 141.667 111.793 141.367 111.42 141.14L112.92 139.6C113.253 139.787 113.647 140.06 114.1 140.42C114.567 140.767 115.013 141.133 115.44 141.52C115.88 141.893 116.22 142.22 116.46 142.5C116.34 142.607 116.173 142.767 115.96 142.98C115.747 143.18 115.533 143.387 115.32 143.6C115.12 143.813 114.967 143.993 114.86 144.14Z" fill="black"/>
<path d="M54.7 157.42V152.82C54.2867 153.407 53.8333 153.98 53.34 154.54C52.8467 155.087 52.4067 155.533 52.02 155.88C51.8467 155.667 51.5867 155.427 51.24 155.16C50.9067 154.88 50.6133 154.687 50.36 154.58C50.7333 154.327 51.1333 153.973 51.56 153.52C52 153.067 52.4267 152.58 52.84 152.06C53.2533 151.54 53.5933 151.06 53.86 150.62H51.42V148.6H54.7V147.28H51.06V145.42H53.2C53.0933 145.073 52.9733 144.733 52.84 144.4C52.72 144.053 52.6067 143.753 52.5 143.5L54.12 143.02H51.52V141.18H54.62V139.26H56.96V141.18H60.06V143.02H57.38L59.04 143.44C58.9467 143.733 58.8333 144.053 58.7 144.4C58.58 144.747 58.4533 145.087 58.32 145.42H60.36V147.28H56.92V148.6H59.92V150.62H57.18C57.4067 150.887 57.6933 151.18 58.04 151.5C58.3867 151.82 58.74 152.127 59.1 152.42C59.4733 152.7 59.8133 152.927 60.12 153.1C59.9867 153.207 59.8267 153.36 59.64 153.56C59.4533 153.747 59.28 153.947 59.12 154.16C58.96 154.36 58.8333 154.533 58.74 154.68C58.5 154.493 58.2133 154.24 57.88 153.92C57.5467 153.6 57.2267 153.273 56.92 152.94V157.42H54.7ZM60.08 157.58C59.84 157.367 59.5133 157.133 59.1 156.88C58.7 156.627 58.36 156.453 58.08 156.36C58.7867 155.72 59.3467 154.98 59.76 154.14C60.1733 153.3 60.4667 152.313 60.64 151.18C60.8133 150.047 60.9 148.72 60.9 147.2V140.9C61.6067 140.9 62.3667 140.84 63.18 140.72C64.0067 140.6 64.8 140.427 65.56 140.2C66.3333 139.973 66.9933 139.707 67.54 139.4L69 141.38C68.5333 141.58 67.96 141.78 67.28 141.98C66.6 142.167 65.9 142.333 65.18 142.48C64.4733 142.627 63.82 142.72 63.22 142.76V145.52H69.02V147.68H67.14V157.52H64.84V147.68H63.2C63.1867 150 62.9133 151.96 62.38 153.56C61.8467 155.16 61.08 156.5 60.08 157.58ZM55.18 145.42H56.28C56.4533 145.02 56.62 144.587 56.78 144.12C56.9533 143.64 57.0733 143.273 57.14 143.02H54.32C54.4667 143.3 54.62 143.667 54.78 144.12C54.94 144.573 55.0733 145.007 55.18 145.42ZM77.46 157.58C77.34 157.26 77.1733 156.92 76.96 156.56C76.7467 156.2 76.5333 155.913 76.32 155.7C77.7467 155.273 78.8267 154.693 79.56 153.96C80.2933 153.227 80.7267 152.207 80.86 150.9H79.3V139.8H87.8V150.9H86.06V154.66C86.06 154.833 86.0933 154.953 86.16 155.02C86.24 155.073 86.3667 155.1 86.54 155.1H86.98C87.2333 155.1 87.4133 154.987 87.52 154.76C87.64 154.52 87.7333 153.993 87.8 153.18C88.0267 153.313 88.3467 153.453 88.76 153.6C89.1867 153.733 89.5467 153.84 89.84 153.92C89.7333 154.853 89.5933 155.56 89.42 156.04C89.2467 156.533 88.9933 156.86 88.66 157.02C88.3267 157.193 87.86 157.28 87.26 157.28H85.7C85.0333 157.28 84.5533 157.167 84.26 156.94C83.9667 156.713 83.82 156.333 83.82 155.8V150.9H83C82.88 152.62 82.38 154.033 81.5 155.14C80.6333 156.233 79.2867 157.047 77.46 157.58ZM72.24 157.5C72.12 157.367 71.9467 157.207 71.72 157.02C71.4933 156.847 71.26 156.673 71.02 156.5C70.78 156.327 70.56 156.193 70.36 156.1C71.3867 155.287 72.1533 154.287 72.66 153.1C73.18 151.9 73.52 150.5 73.68 148.9H70.86V146.78H73.82C73.8333 146.607 73.84 146.44 73.84 146.28C73.84 146.12 73.84 145.953 73.84 145.78V144.7H71.18V142.66H73.84V139.38H76.08V142.66H78.46V144.7H76.08V146.78H78.76V148.9H75.94C75.9267 148.993 75.9133 149.093 75.9 149.2C75.9 149.307 75.8933 149.413 75.88 149.52C76.12 149.853 76.4333 150.233 76.82 150.66C77.22 151.087 77.6533 151.5 78.12 151.9C78.5867 152.287 79.0333 152.613 79.46 152.88C79.2067 153.133 78.94 153.427 78.66 153.76C78.38 154.093 78.16 154.393 78 154.66C77.6 154.353 77.1667 153.967 76.7 153.5C76.2333 153.033 75.8 152.547 75.4 152.04C75.1067 153.08 74.7 154.053 74.18 154.96C73.6733 155.853 73.0267 156.7 72.24 157.5ZM81.5 148.96H85.6V147.62H81.5V148.96ZM81.5 143.06H85.6V141.72H81.5V143.06ZM81.5 146H85.6V144.68H81.5V146ZM98.72 157.56V152.38H92.3V141.96H98.72V139.26H101.24V141.96H107.7V152.38H101.24V157.56H98.72ZM101.24 150.16H105.14V148.2H101.24V150.16ZM94.86 150.16H98.72V148.2H94.86V150.16ZM101.24 146.1H105.14V144.18H101.24V146.1ZM94.86 146.1H98.72V144.18H94.86V146.1ZM117.86 154.06C117.633 153.78 117.36 153.493 117.04 153.2C116.733 152.893 116.427 152.653 116.12 152.48C117.04 151.84 117.82 151.06 118.46 150.14C119.113 149.22 119.633 148.233 120.02 147.18C120.42 146.127 120.68 145.087 120.8 144.06L122 144.24C121.973 143.947 121.953 143.653 121.94 143.36C121.927 143.053 121.92 142.74 121.92 142.42H118.28V140.12H124.2C124.08 141.92 124.147 143.56 124.4 145.04C124.653 146.507 125.16 147.827 125.92 149C126.68 150.173 127.747 151.227 129.12 152.16C128.813 152.413 128.493 152.727 128.16 153.1C127.827 153.473 127.567 153.773 127.38 154C126.207 153.147 125.193 152.14 124.34 150.98C123.487 149.807 122.853 148.427 122.44 146.84C122.027 148.307 121.433 149.653 120.66 150.88C119.9 152.093 118.967 153.153 117.86 154.06ZM121.96 157.2C120.547 157.2 119.373 157.127 118.44 156.98C117.507 156.847 116.74 156.633 116.14 156.34C115.54 156.06 115.027 155.707 114.6 155.28C114.36 155.453 114.047 155.66 113.66 155.9C113.287 156.127 112.9 156.353 112.5 156.58C112.113 156.82 111.773 157.02 111.48 157.18L110.5 154.84C110.767 154.733 111.087 154.607 111.46 154.46C111.847 154.3 112.22 154.14 112.58 153.98C112.94 153.807 113.207 153.673 113.38 153.58V148.6H111V146.52H115.66V153.28C115.913 153.92 116.52 154.373 117.48 154.64C118.453 154.907 119.947 155.04 121.96 155.04C123.667 155.04 125.133 155.013 126.36 154.96C127.587 154.893 128.58 154.807 129.34 154.7C129.273 154.847 129.2 155.08 129.12 155.4C129.04 155.707 128.973 156.027 128.92 156.36C128.867 156.693 128.833 156.96 128.82 157.16C128.447 157.16 127.96 157.16 127.36 157.16C126.76 157.173 126.12 157.18 125.44 157.18C124.773 157.193 124.133 157.2 123.52 157.2C122.907 157.2 122.387 157.2 121.96 157.2ZM114.86 144.14C114.62 143.847 114.3 143.513 113.9 143.14C113.5 142.767 113.08 142.4 112.64 142.04C112.2 141.667 111.793 141.367 111.42 141.14L112.92 139.6C113.253 139.787 113.647 140.06 114.1 140.42C114.567 140.767 115.013 141.133 115.44 141.52C115.88 141.893 116.22 142.22 116.46 142.5C116.34 142.607 116.173 142.767 115.96 142.98C115.747 143.18 115.533 143.387 115.32 143.6C115.12 143.813 114.967 143.993 114.86 144.14Z" fill="white"/>
<path d="M54.7 157.42V152.82C54.2867 153.407 53.8333 153.98 53.34 154.54C52.8467 155.087 52.4067 155.533 52.02 155.88C51.8467 155.667 51.5867 155.427 51.24 155.16C50.9067 154.88 50.6133 154.687 50.36 154.58C50.7333 154.327 51.1333 153.973 51.56 153.52C52 153.067 52.4267 152.58 52.84 152.06C53.2533 151.54 53.5933 151.06 53.86 150.62H51.42V148.6H54.7V147.28H51.06V145.42H53.2C53.0933 145.073 52.9733 144.733 52.84 144.4C52.72 144.053 52.6067 143.753 52.5 143.5L54.12 143.02H51.52V141.18H54.62V139.26H56.96V141.18H60.06V143.02H57.38L59.04 143.44C58.9467 143.733 58.8333 144.053 58.7 144.4C58.58 144.747 58.4533 145.087 58.32 145.42H60.36V147.28H56.92V148.6H59.92V150.62H57.18C57.4067 150.887 57.6933 151.18 58.04 151.5C58.3867 151.82 58.74 152.127 59.1 152.42C59.4733 152.7 59.8133 152.927 60.12 153.1C59.9867 153.207 59.8267 153.36 59.64 153.56C59.4533 153.747 59.28 153.947 59.12 154.16C58.96 154.36 58.8333 154.533 58.74 154.68C58.5 154.493 58.2133 154.24 57.88 153.92C57.5467 153.6 57.2267 153.273 56.92 152.94V157.42H54.7ZM60.08 157.58C59.84 157.367 59.5133 157.133 59.1 156.88C58.7 156.627 58.36 156.453 58.08 156.36C58.7867 155.72 59.3467 154.98 59.76 154.14C60.1733 153.3 60.4667 152.313 60.64 151.18C60.8133 150.047 60.9 148.72 60.9 147.2V140.9C61.6067 140.9 62.3667 140.84 63.18 140.72C64.0067 140.6 64.8 140.427 65.56 140.2C66.3333 139.973 66.9933 139.707 67.54 139.4L69 141.38C68.5333 141.58 67.96 141.78 67.28 141.98C66.6 142.167 65.9 142.333 65.18 142.48C64.4733 142.627 63.82 142.72 63.22 142.76V145.52H69.02V147.68H67.14V157.52H64.84V147.68H63.2C63.1867 150 62.9133 151.96 62.38 153.56C61.8467 155.16 61.08 156.5 60.08 157.58ZM55.18 145.42H56.28C56.4533 145.02 56.62 144.587 56.78 144.12C56.9533 143.64 57.0733 143.273 57.14 143.02H54.32C54.4667 143.3 54.62 143.667 54.78 144.12C54.94 144.573 55.0733 145.007 55.18 145.42ZM77.46 157.58C77.34 157.26 77.1733 156.92 76.96 156.56C76.7467 156.2 76.5333 155.913 76.32 155.7C77.7467 155.273 78.8267 154.693 79.56 153.96C80.2933 153.227 80.7267 152.207 80.86 150.9H79.3V139.8H87.8V150.9H86.06V154.66C86.06 154.833 86.0933 154.953 86.16 155.02C86.24 155.073 86.3667 155.1 86.54 155.1H86.98C87.2333 155.1 87.4133 154.987 87.52 154.76C87.64 154.52 87.7333 153.993 87.8 153.18C88.0267 153.313 88.3467 153.453 88.76 153.6C89.1867 153.733 89.5467 153.84 89.84 153.92C89.7333 154.853 89.5933 155.56 89.42 156.04C89.2467 156.533 88.9933 156.86 88.66 157.02C88.3267 157.193 87.86 157.28 87.26 157.28H85.7C85.0333 157.28 84.5533 157.167 84.26 156.94C83.9667 156.713 83.82 156.333 83.82 155.8V150.9H83C82.88 152.62 82.38 154.033 81.5 155.14C80.6333 156.233 79.2867 157.047 77.46 157.58ZM72.24 157.5C72.12 157.367 71.9467 157.207 71.72 157.02C71.4933 156.847 71.26 156.673 71.02 156.5C70.78 156.327 70.56 156.193 70.36 156.1C71.3867 155.287 72.1533 154.287 72.66 153.1C73.18 151.9 73.52 150.5 73.68 148.9H70.86V146.78H73.82C73.8333 146.607 73.84 146.44 73.84 146.28C73.84 146.12 73.84 145.953 73.84 145.78V144.7H71.18V142.66H73.84V139.38H76.08V142.66H78.46V144.7H76.08V146.78H78.76V148.9H75.94C75.9267 148.993 75.9133 149.093 75.9 149.2C75.9 149.307 75.8933 149.413 75.88 149.52C76.12 149.853 76.4333 150.233 76.82 150.66C77.22 151.087 77.6533 151.5 78.12 151.9C78.5867 152.287 79.0333 152.613 79.46 152.88C79.2067 153.133 78.94 153.427 78.66 153.76C78.38 154.093 78.16 154.393 78 154.66C77.6 154.353 77.1667 153.967 76.7 153.5C76.2333 153.033 75.8 152.547 75.4 152.04C75.1067 153.08 74.7 154.053 74.18 154.96C73.6733 155.853 73.0267 156.7 72.24 157.5ZM81.5 148.96H85.6V147.62H81.5V148.96ZM81.5 143.06H85.6V141.72H81.5V143.06ZM81.5 146H85.6V144.68H81.5V146ZM98.72 157.56V152.38H92.3V141.96H98.72V139.26H101.24V141.96H107.7V152.38H101.24V157.56H98.72ZM101.24 150.16H105.14V148.2H101.24V150.16ZM94.86 150.16H98.72V148.2H94.86V150.16ZM101.24 146.1H105.14V144.18H101.24V146.1ZM94.86 146.1H98.72V144.18H94.86V146.1ZM117.86 154.06C117.633 153.78 117.36 153.493 117.04 153.2C116.733 152.893 116.427 152.653 116.12 152.48C117.04 151.84 117.82 151.06 118.46 150.14C119.113 149.22 119.633 148.233 120.02 147.18C120.42 146.127 120.68 145.087 120.8 144.06L122 144.24C121.973 143.947 121.953 143.653 121.94 143.36C121.927 143.053 121.92 142.74 121.92 142.42H118.28V140.12H124.2C124.08 141.92 124.147 143.56 124.4 145.04C124.653 146.507 125.16 147.827 125.92 149C126.68 150.173 127.747 151.227 129.12 152.16C128.813 152.413 128.493 152.727 128.16 153.1C127.827 153.473 127.567 153.773 127.38 154C126.207 153.147 125.193 152.14 124.34 150.98C123.487 149.807 122.853 148.427 122.44 146.84C122.027 148.307 121.433 149.653 120.66 150.88C119.9 152.093 118.967 153.153 117.86 154.06ZM121.96 157.2C120.547 157.2 119.373 157.127 118.44 156.98C117.507 156.847 116.74 156.633 116.14 156.34C115.54 156.06 115.027 155.707 114.6 155.28C114.36 155.453 114.047 155.66 113.66 155.9C113.287 156.127 112.9 156.353 112.5 156.58C112.113 156.82 111.773 157.02 111.48 157.18L110.5 154.84C110.767 154.733 111.087 154.607 111.46 154.46C111.847 154.3 112.22 154.14 112.58 153.98C112.94 153.807 113.207 153.673 113.38 153.58V148.6H111V146.52H115.66V153.28C115.913 153.92 116.52 154.373 117.48 154.64C118.453 154.907 119.947 155.04 121.96 155.04C123.667 155.04 125.133 155.013 126.36 154.96C127.587 154.893 128.58 154.807 129.34 154.7C129.273 154.847 129.2 155.08 129.12 155.4C129.04 155.707 128.973 156.027 128.92 156.36C128.867 156.693 128.833 156.96 128.82 157.16C128.447 157.16 127.96 157.16 127.36 157.16C126.76 157.173 126.12 157.18 125.44 157.18C124.773 157.193 124.133 157.2 123.52 157.2C122.907 157.2 122.387 157.2 121.96 157.2ZM114.86 144.14C114.62 143.847 114.3 143.513 113.9 143.14C113.5 142.767 113.08 142.4 112.64 142.04C112.2 141.667 111.793 141.367 111.42 141.14L112.92 139.6C113.253 139.787 113.647 140.06 114.1 140.42C114.567 140.767 115.013 141.133 115.44 141.52C115.88 141.893 116.22 142.22 116.46 142.5C116.34 142.607 116.173 142.767 115.96 142.98C115.747 143.18 115.533 143.387 115.32 143.6C115.12 143.813 114.967 143.993 114.86 144.14Z" fill="#2B7A78"/>
<path d="M117.409 22.625H60.5912C58.7102 22.625 57.2529 24.1549 57.4866 25.8856L65.7174 87.1325C66.371 91.9917 70.8436 95.656 76.1218 95.656H101.876C107.154 95.656 111.629 91.9917 112.283 87.1325L120.513 25.8856C120.747 24.1531 119.29 22.625 117.409 22.625Z" fill="#2B7A78"/>
<path d="M108.224 25.2283L96.4614 25.9227L93.3815 28.704L90.959 34.7617L93.0262 41.9262L104.69 44.2933L110.187 42.3775L113.183 35.1071L108.224 25.2266V25.2283ZM107.094 37.9377L103.716 39.175L98.103 36.6528L99.0359 31.6297L103.716 29.6504L107.094 32.9904V37.9377Z" fill="#FAF8F4"/>
<path d="M106.961 47.957H99.422L96.0324 49.8658L92.6846 54.8995L94.368 61.9301L99.327 65.4886L106.313 66.183L112.37 61.5089L113.286 52.3827L106.959 47.957H106.961ZM106.083 60.0354H101.307L99.5664 56.9123L101.989 53.7891L106.885 55.2538L106.083 60.0354Z" fill="#FAF8F4"/>
<path d="M84.8045 71.7674L85.0287 77.6841L81.0235 76.6883L77.6263 77.2999L75.9543 79.228L75.3045 82.0886L76.3742 84.1348L78.772 85.4779L81.3902 85.7317L85.0876 84.2776L86.3283 83.2501L87.6336 89.3025L86.1972 89.8295L82.002 91.31H77.7118L74.934 90.679L72.6578 89.8383L70.5906 87.7691L68.55 83.5074L68.2422 80.1551L69.6121 76.0626L70.8091 74.0498L72.9124 72.7667L76.9328 71.7674L79.5149 71.251L83.2408 71.4325L84.8045 71.7674Z" fill="#FAF8F4"/>
<path d="M69.6299 27.5145L71.3665 46.1741L76.9867 45.7247L75.9265 34.3301L77.7562 32.0318L80.6974 31.7093L82.6696 33.9635L83.7146 45.1853L89.4279 44.7288L88.0979 30.4279L83.9616 26.8835L78.6606 26.7919L75.0221 27.5991L75.195 26.4658L69.6299 27.5145Z" fill="#FAF8F4"/>
<path d="M65.5406 49.7588C65.5976 50.21 65.0713 66.5713 65.0713 66.5713L70.1101 66.7792L70.6288 57.9985L71.6624 56.6995L73.1197 56.1831L74.7385 56.8035L75.7778 58.4937L75.2705 67.0507L80.8261 67.2481L81.7286 58.5061L82.9541 56.9692L84.1093 56.8881L86.0701 57.8222L86.5831 60.0077L86.148 67.5266L91.107 67.731L91.7188 55.9311L88.5249 52.2774L84.7439 50.6136L81.1491 51.5742L79.232 52.8344L74.8392 50.5466L72.3407 50.5854L70.6991 51.1847L70.9214 49.9985L65.5368 49.7588H65.5406Z" fill="#FAF8F4"/>
<path d="M104.266 71.0307L104.08 72.4178L99.824 69.8516L93.0999 71.5347L88.0098 76.7535L88.9674 83.6784L94.1962 87.6881L100.989 87.9137L100.806 88.8231L105.765 89.6744L109.328 71.8167L104.266 71.0307ZM99.3927 82.5856L95.9442 81.9934L94.4926 79.644L95.6706 77.1747L97.7986 76.1402L101.116 77.1078L101.53 80.4724L99.3927 82.5874V82.5856Z" fill="#FAF8F4"/>
<path d="M66.766 118.059V125.942H65.6982V118.059H66.766ZM70.4197 118.059H71.6452L68.0884 121.786L71.9492 125.942H70.6743L66.8857 121.82L70.4197 118.059Z" fill="#2B7A78"/>
<path d="M79.0766 120.266V125.943H78.0677V125.02C77.8131 125.335 77.4977 125.584 77.1082 125.774C76.7206 125.966 76.295 126.056 75.8219 126.056C75.3488 126.056 74.9593 125.977 74.5964 125.83C74.2069 125.684 73.8915 125.471 73.6122 125.212C73.3329 124.953 73.1277 124.637 72.9681 124.276C72.8104 123.916 72.7363 123.521 72.7363 123.093C72.7363 122.665 72.8085 122.282 72.9681 121.933C73.1258 121.572 73.331 121.258 73.6122 120.998C73.8915 120.738 74.2069 120.525 74.5964 120.379C74.9593 120.233 75.3735 120.153 75.8219 120.153C76.295 120.153 76.7206 120.243 77.1082 120.425C77.4977 120.615 77.8131 120.864 78.0677 121.179V120.266H79.0766ZM75.9435 120.964C75.6395 120.964 75.3488 121.02 75.0809 121.123C74.8263 121.225 74.5964 121.369 74.4007 121.572C74.2183 121.752 74.072 121.978 73.9637 122.247C73.8535 122.496 73.806 122.788 73.806 123.104C73.806 123.419 73.8554 123.712 73.9637 123.96C74.0739 124.23 74.2183 124.456 74.4007 124.635C74.5945 124.838 74.8263 124.984 75.0809 125.085C75.3355 125.185 75.6262 125.243 75.9435 125.243C76.2608 125.243 76.5496 125.187 76.8042 125.085C77.0588 124.983 77.2906 124.838 77.473 124.635C77.6554 124.456 77.8017 124.23 77.91 123.96C78.0183 123.712 78.0677 123.419 78.0677 123.104C78.0677 122.788 78.0183 122.496 77.91 122.247C77.7998 121.976 77.6554 121.752 77.473 121.572C77.2906 121.369 77.0588 121.223 76.8042 121.123C76.5496 121.02 76.2589 120.964 75.9435 120.964Z" fill="#2B7A78"/>
<path d="M83.5052 125.964C83.0682 125.964 82.6692 125.897 82.2797 125.738C81.9149 125.603 81.5881 125.402 81.3088 125.13C81.0409 124.882 80.8357 124.568 80.6761 124.217C80.5184 123.868 80.4443 123.474 80.4443 123.058C80.4443 122.642 80.5165 122.247 80.6761 121.898C80.8338 121.549 81.0409 121.234 81.3088 120.985C81.5881 120.714 81.9149 120.513 82.2797 120.377C82.6692 120.218 83.0682 120.151 83.5052 120.151C83.9783 120.151 84.4172 120.241 84.7934 120.423C85.1696 120.592 85.485 120.839 85.7415 121.154V120.264H86.7485L86.7599 125.918C86.7599 126.301 86.6877 126.639 86.5281 126.955C86.3704 127.247 86.1519 127.506 85.8612 127.721C85.5686 127.935 85.2171 128.093 84.8048 128.206C84.3811 128.319 83.9061 128.375 83.3836 128.375C83.1537 128.375 82.9105 128.375 82.6198 128.352C82.3519 128.352 82.0118 128.319 81.6242 128.273L81.685 127.429C82.0004 127.485 82.3044 127.519 82.6198 127.542C82.9124 127.564 83.1898 127.575 83.433 127.575C84.174 127.575 84.7326 127.429 85.1449 127.136C85.5344 126.856 85.7396 126.449 85.7396 125.931V124.961C85.485 125.266 85.1677 125.513 84.7801 125.693C84.4039 125.872 83.9783 125.964 83.5052 125.964ZM83.6401 120.964C83.338 120.964 83.0454 121.01 82.7908 121.122C82.5362 121.212 82.3044 121.359 82.1106 121.551C81.9282 121.743 81.7838 121.956 81.6736 122.205C81.5634 122.464 81.5159 122.746 81.5159 123.049C81.5159 123.352 81.5653 123.646 81.6736 123.893C81.7838 124.163 81.9282 124.378 82.1106 124.568C82.293 124.748 82.5248 124.894 82.7794 124.996C83.034 125.099 83.3247 125.155 83.6287 125.155C83.9327 125.155 84.2234 125.099 84.4799 124.996C84.7345 124.894 84.9644 124.75 85.1468 124.568C85.3292 124.376 85.4755 124.163 85.5838 123.893C85.694 123.645 85.7415 123.352 85.7415 123.049C85.7415 122.746 85.6921 122.464 85.5838 122.205C85.4736 121.958 85.3292 121.743 85.1468 121.551C84.9644 121.359 84.7345 121.214 84.4913 121.122C84.2234 121.01 83.9441 120.964 83.6401 120.964Z" fill="#2B7A78"/>
<path d="M94.4321 120.266V125.943H93.4232V125.02C93.1686 125.335 92.8532 125.584 92.4656 125.774C92.0761 125.966 91.6505 126.056 91.1774 126.056C90.729 126.056 90.3148 125.977 89.95 125.83C89.5624 125.684 89.247 125.471 88.9677 125.212C88.6884 124.953 88.4813 124.637 88.3236 124.276C88.1659 123.916 88.0938 123.521 88.0938 123.093C88.0938 122.665 88.1659 122.282 88.3236 121.933C88.4813 121.572 88.6884 121.258 88.9677 120.998C89.247 120.737 89.5624 120.525 89.95 120.379C90.3148 120.233 90.7271 120.153 91.1774 120.153C91.6505 120.153 92.0761 120.243 92.4656 120.425C92.8532 120.615 93.1686 120.864 93.4232 121.179V120.266H94.4321ZM91.299 120.964C90.9969 120.964 90.7043 121.02 90.4364 121.123C90.1818 121.225 89.95 121.369 89.7562 121.572C89.5738 121.752 89.4294 121.978 89.3192 122.247C89.209 122.496 89.1615 122.788 89.1615 123.104C89.1615 123.419 89.2109 123.712 89.3192 123.96C89.4294 124.23 89.5738 124.456 89.7562 124.635C89.95 124.838 90.1799 124.984 90.4364 125.085C90.6929 125.185 90.9836 125.243 91.299 125.243C91.6144 125.243 91.9052 125.187 92.1617 125.085C92.4182 124.983 92.6461 124.838 92.8285 124.635C93.0109 124.456 93.1554 124.23 93.2656 123.96C93.3758 123.712 93.4232 123.419 93.4232 123.104C93.4232 122.788 93.3739 122.496 93.2656 122.247C93.1554 121.976 93.0109 121.752 92.8285 121.572C92.6461 121.369 92.4163 121.223 92.1617 121.123C91.9071 121.022 91.6144 120.964 91.299 120.964Z" fill="#2B7A78"/>
<path d="M102.832 126.066L100.562 121.956L98.2666 126.055L95.4375 120.266H96.5661L98.4224 124.106L100.389 120.266H100.742L102.72 124.106L104.554 120.266H105.671L102.83 126.066H102.832Z" fill="#2B7A78"/>
<path d="M112.301 120.266V125.943H111.292V125.02C111.038 125.335 110.722 125.584 110.335 125.774C109.945 125.966 109.522 126.056 109.048 126.056C108.575 126.056 108.186 125.977 107.821 125.83C107.433 125.684 107.116 125.471 106.837 125.212C106.558 124.953 106.352 124.637 106.193 124.276C106.035 123.916 105.963 123.521 105.963 123.093C105.963 122.665 106.035 122.282 106.193 121.933C106.35 121.572 106.556 121.258 106.837 120.998C107.116 120.738 107.432 120.525 107.821 120.379C108.184 120.233 108.598 120.153 109.048 120.153C109.522 120.153 109.945 120.243 110.335 120.425C110.724 120.615 111.04 120.864 111.292 121.179V120.266H112.301ZM109.17 120.964C108.866 120.964 108.575 121.02 108.307 121.123C108.053 121.225 107.823 121.369 107.629 121.572C107.447 121.752 107.3 121.978 107.192 122.247C107.082 122.496 107.034 122.788 107.034 123.104C107.034 123.419 107.084 123.712 107.192 123.96C107.302 124.23 107.447 124.456 107.629 124.635C107.823 124.838 108.053 124.984 108.307 125.085C108.562 125.187 108.855 125.243 109.17 125.243C109.485 125.243 109.776 125.187 110.031 125.085C110.285 124.983 110.517 124.838 110.7 124.635C110.882 124.456 111.026 124.23 111.137 123.96C111.245 123.712 111.294 123.419 111.294 123.104C111.294 122.788 111.245 122.496 111.137 122.247C111.026 121.976 110.882 121.752 110.7 121.572C110.517 121.369 110.285 121.223 110.031 121.123C109.776 121.022 109.485 120.964 109.17 120.964Z" fill="#2B7A78"/>
<path d="M48.967 114.039H46.1436V103.485H48.967V104.608C49.4819 104.192 50.0652 103.861 50.7359 103.632C51.3857 103.402 52.102 103.277 52.8639 103.277C53.6258 103.277 54.2756 103.381 54.857 103.61C55.484 103.818 55.9761 104.109 56.4245 104.525C56.8273 104.899 57.1617 105.376 57.4087 105.937C57.6329 106.478 57.745 107.079 57.745 107.765V114.039H54.9216V107.951C54.9216 107.183 54.6974 106.601 54.2262 106.143C53.7569 105.727 53.128 105.498 52.3224 105.498C51.2926 105.498 50.4642 105.81 49.8809 106.434C49.2539 107.079 48.9632 107.93 48.9632 108.99V114.039H48.967Z" fill="#2B7A78"/>
<path d="M65.3643 114.246C64.4694 114.246 63.641 114.1 62.9019 113.83C62.14 113.561 61.4902 113.166 60.9316 112.688C60.3939 112.211 59.9683 111.629 59.6548 110.965C59.3432 110.279 59.1855 109.553 59.1855 108.763C59.1855 107.974 59.3432 107.246 59.632 106.56C59.9455 105.896 60.3711 105.314 60.9316 104.836C61.4921 104.359 62.1419 103.964 62.9019 103.694C63.641 103.425 64.4694 103.278 65.3643 103.278C66.2592 103.278 67.0895 103.403 67.8286 103.694C68.5677 103.945 69.2175 104.339 69.7761 104.817C70.3366 105.316 70.7622 105.897 71.0529 106.562C71.3664 107.247 71.5241 107.974 71.5241 108.765C71.5241 109.556 71.3664 110.281 71.0529 110.966C70.7622 111.631 70.3366 112.212 69.7989 112.711C69.2403 113.189 68.5905 113.584 67.8286 113.834C67.0895 114.125 66.2611 114.25 65.3643 114.25V114.246ZM65.3643 105.499C64.4029 105.499 63.641 105.79 63.0349 106.393C62.4307 106.995 62.1381 107.785 62.1381 108.761C62.1381 109.738 62.4307 110.506 63.0349 111.129C63.6163 111.71 64.401 112.022 65.3643 112.022C66.3276 112.022 67.1123 111.71 67.6937 111.129C68.2979 110.506 68.5905 109.736 68.5905 108.761C68.5905 107.787 68.2979 106.995 67.6937 106.393C67.0895 105.79 66.3276 105.499 65.3643 105.499Z" fill="#2B7A78"/>
<path d="M75.8957 114.039H73.0723V103.485H75.8957V104.608C76.365 104.192 76.9255 103.861 77.5753 103.632C78.2023 103.402 78.8958 103.277 79.6596 103.277C80.5773 103.277 81.3829 103.445 82.0783 103.776C82.7718 104.109 83.3095 104.566 83.7123 105.169C84.2272 104.566 84.8542 104.109 85.5952 103.776C86.3552 103.445 87.2083 103.277 88.1469 103.277C88.886 103.277 89.5586 103.381 90.1628 103.61C90.767 103.818 91.3047 104.109 91.7303 104.525C92.1559 104.899 92.4922 105.376 92.7601 105.937C92.9843 106.478 93.1192 107.079 93.1192 107.765V114.039H90.2977V107.951C90.2977 107.183 90.0735 106.601 89.5814 106.143C89.133 105.727 88.4832 105.498 87.6757 105.498C87.2501 105.498 86.8701 105.562 86.4901 105.685C86.1082 105.808 85.7947 105.976 85.504 106.224C85.2133 106.432 85.01 106.702 84.8314 107.014C84.6984 107.305 84.6072 107.638 84.6072 107.99V114.036H81.7629V107.948C81.7629 107.18 81.5387 106.598 81.0903 106.14C80.6419 105.724 80.0149 105.495 79.2093 105.495C78.1776 105.495 77.372 105.807 76.7678 106.43C76.1845 107.033 75.8938 107.863 75.8938 108.903V114.036L75.8957 114.039Z" fill="#2B7A78"/>
<path d="M100.807 114.246C99.9098 114.246 99.0833 114.1 98.3423 113.83C97.5823 113.561 96.9325 113.166 96.372 112.688C95.8362 112.211 95.4087 111.629 95.0952 110.965C94.7817 110.279 94.624 109.553 94.624 108.763C94.624 107.974 94.7817 107.246 95.0724 106.56C95.3859 105.896 95.8115 105.314 96.372 104.836C96.9325 104.359 97.5823 103.964 98.3423 103.694C99.0814 103.425 99.9098 103.278 100.807 103.278C101.703 103.278 102.53 103.403 103.271 103.694C104.01 103.945 104.66 104.339 105.218 104.817C105.779 105.316 106.205 105.897 106.495 106.562C106.809 107.247 106.966 107.974 106.966 108.765C106.966 109.556 106.811 110.281 106.495 110.966C106.205 111.631 105.779 112.212 105.241 112.711C104.681 113.189 104.031 113.584 103.271 113.834C102.532 114.125 101.703 114.25 100.807 114.25V114.246ZM100.807 105.499C99.8433 105.499 99.0833 105.79 98.4772 106.393C97.873 106.995 97.5804 107.785 97.5804 108.761C97.5804 109.738 97.8711 110.506 98.4772 111.129C99.0586 111.71 99.8433 112.022 100.807 112.022C101.77 112.022 102.553 111.71 103.136 111.129C103.74 110.506 104.033 109.736 104.033 108.761C104.033 107.787 103.742 106.995 103.136 106.393C102.532 105.79 101.77 105.499 100.807 105.499Z" fill="#2B7A78"/>
<path d="M114.606 105.499C113.597 105.499 112.769 105.79 112.165 106.393C111.538 106.996 111.224 107.785 111.224 108.762C111.224 109.239 111.313 109.677 111.471 110.071C111.627 110.466 111.874 110.819 112.167 111.09C112.457 111.381 112.839 111.61 113.242 111.755C113.69 111.922 114.139 112.005 114.654 112.005C115.214 112.005 115.752 111.922 116.267 111.735C116.782 111.548 117.23 111.298 117.566 110.988L118.708 112.754C118.148 113.189 117.477 113.565 116.738 113.834C115.976 114.104 115.237 114.25 114.521 114.25C113.603 114.25 112.775 114.104 112.013 113.834C111.251 113.565 110.601 113.17 110.042 112.692C109.482 112.215 109.056 111.633 108.743 110.968C108.431 110.283 108.273 109.557 108.273 108.767C108.273 107.978 108.431 107.25 108.743 106.564C109.056 105.9 109.482 105.318 110.042 104.84C110.603 104.363 111.253 103.968 112.013 103.698C112.775 103.429 113.603 103.282 114.498 103.282C115.237 103.282 115.932 103.386 116.559 103.573C117.232 103.76 117.813 104.051 118.328 104.405L117.431 106.629C117.095 106.296 116.692 106.026 116.2 105.818C115.708 105.61 115.17 105.507 114.61 105.507L114.606 105.499Z" fill="#2B7A78"/>
<path d="M131.854 103.485V114.038H129.031V113.02C128.583 113.414 128.068 113.705 127.486 113.913C126.882 114.142 126.232 114.246 125.539 114.246C124.688 114.246 123.905 114.1 123.209 113.83C122.516 113.561 121.91 113.166 121.395 112.688C120.901 112.211 120.521 111.629 120.23 110.965C119.94 110.279 119.805 109.553 119.805 108.742C119.805 107.931 119.94 107.226 120.23 106.56C120.523 105.896 120.903 105.314 121.418 104.836C121.933 104.359 122.537 103.964 123.232 103.694C123.926 103.425 124.71 103.278 125.539 103.278C126.234 103.278 126.882 103.382 127.486 103.611C128.07 103.819 128.585 104.11 129.031 104.484V103.486H131.854V103.485ZM125.875 105.499C124.935 105.499 124.173 105.79 123.591 106.393C123.031 106.995 122.74 107.785 122.74 108.761C122.74 109.239 122.807 109.696 122.964 110.09C123.12 110.485 123.322 110.838 123.591 111.129C123.882 111.4 124.218 111.627 124.598 111.793C124.98 111.939 125.406 112.022 125.875 112.022C126.344 112.022 126.772 111.939 127.175 111.793C127.532 111.627 127.868 111.398 128.159 111.129C128.429 110.838 128.63 110.485 128.786 110.09C128.944 109.696 129.01 109.239 129.01 108.761C129.01 108.284 128.944 107.826 128.786 107.433C128.63 107.038 128.429 106.685 128.159 106.394C127.868 106.123 127.532 105.896 127.175 105.73C126.772 105.585 126.346 105.501 125.875 105.501V105.499Z" fill="#2B7A78"/>
</svg>
