<?xml version="1.0" encoding="UTF-8"?><svg id="_レイヤー_1" xmlns="http://www.w3.org/2000/svg" viewBox="0 0 800 300"><defs><style>.cls-1{fill:#2b7a78;}</style></defs><path class="cls-1" d="M251.62,172.01v56.72h-7.13v-56.72h7.13ZM276.01,172.01h8.18l-23.74,26.82,25.77,29.9h-8.51l-25.28-29.65,23.58-27.06Z"/><path class="cls-1" d="M333.77,187.89v40.84h-6.73v-6.65c-1.7,2.27-3.81,4.06-6.4,5.43-2.59,1.38-5.42,2.03-8.59,2.03s-5.75-.57-8.18-1.62c-2.6-1.05-4.7-2.59-6.56-4.46-1.87-1.87-3.24-4.13-4.29-6.73-1.05-2.59-1.54-5.43-1.54-8.51s.49-5.83,1.54-8.34c1.05-2.6,2.43-4.86,4.29-6.73,1.86-1.87,3.97-3.4,6.56-4.46,2.43-1.05,5.18-1.62,8.18-1.62,3.16,0,6,.65,8.59,1.95,2.6,1.37,4.7,3.16,6.4,5.43v-6.56h6.73ZM312.87,192.92c-2.03,0-3.97.41-5.75,1.14-1.7.73-3.24,1.78-4.54,3.24-1.22,1.3-2.19,2.91-2.92,4.86-.73,1.78-1.05,3.89-1.05,6.16s.32,4.37,1.05,6.16c.73,1.94,1.7,3.56,2.92,4.86,1.3,1.46,2.84,2.51,4.54,3.24s3.64,1.14,5.75,1.14,4.05-.41,5.75-1.14c1.7-.73,3.24-1.78,4.46-3.24,1.22-1.3,2.19-2.92,2.92-4.86.72-1.78,1.05-3.89,1.05-6.16s-.32-4.37-1.05-6.16c-.73-1.95-1.7-3.56-2.92-4.86-1.22-1.46-2.76-2.51-4.46-3.24-1.7-.73-3.64-1.14-5.75-1.14Z"/><path class="cls-1" d="M363.34,228.89c-2.91,0-5.59-.49-8.18-1.62-2.43-.97-4.62-2.43-6.48-4.37-1.78-1.78-3.16-4.05-4.22-6.56-1.05-2.51-1.54-5.35-1.54-8.34s.49-5.83,1.54-8.34c1.05-2.51,2.43-4.78,4.22-6.56,1.86-1.95,4.04-3.4,6.48-4.37,2.6-1.14,5.27-1.62,8.18-1.62,3.16,0,6.08.65,8.59,1.95,2.51,1.21,4.62,3,6.32,5.27v-6.4h6.72l.08,40.67c0,2.75-.49,5.19-1.54,7.46-1.05,2.1-2.51,3.97-4.45,5.51-1.95,1.54-4.3,2.67-7.05,3.48-2.83.81-6,1.22-9.48,1.22-1.54,0-3.15,0-5.1-.16-1.78,0-4.06-.24-6.65-.57l.41-6.08c2.1.41,4.13.65,6.24.81,1.95.16,3.81.24,5.42.24,4.95,0,8.67-1.05,11.43-3.16,2.6-2.02,3.97-4.94,3.97-8.67v-6.97c-1.7,2.19-3.81,3.97-6.4,5.27-2.51,1.3-5.35,1.95-8.51,1.95ZM364.23,192.92c-2.02,0-3.97.32-5.67,1.14-1.7.65-3.24,1.7-4.54,3.08-1.22,1.38-2.18,2.92-2.91,4.7-.73,1.87-1.05,3.89-1.05,6.08s.32,4.29,1.05,6.08c.73,1.94,1.7,3.48,2.91,4.86,1.22,1.3,2.76,2.35,4.46,3.08,1.7.73,3.64,1.14,5.67,1.14s3.97-.41,5.68-1.14c1.7-.73,3.23-1.78,4.45-3.08,1.22-1.38,2.19-2.92,2.92-4.86.73-1.78,1.05-3.89,1.05-6.08s-.32-4.21-1.05-6.08c-.73-1.78-1.7-3.32-2.92-4.7s-2.75-2.43-4.37-3.08c-1.78-.81-3.65-1.14-5.68-1.14Z"/><path class="cls-1" d="M436.25,187.89v40.84h-6.73v-6.65c-1.7,2.27-3.81,4.06-6.4,5.43-2.6,1.38-5.43,2.03-8.59,2.03-3,0-5.75-.57-8.19-1.62-2.59-1.05-4.69-2.59-6.56-4.46-1.87-1.87-3.24-4.13-4.3-6.73-1.05-2.59-1.54-5.43-1.54-8.51s.49-5.83,1.54-8.34c1.05-2.6,2.43-4.86,4.3-6.73,1.87-1.87,3.97-3.4,6.56-4.46,2.43-1.05,5.19-1.62,8.19-1.62,3.16,0,6,.65,8.59,1.95,2.59,1.37,4.69,3.16,6.4,5.43v-6.56h6.73ZM415.35,192.92c-2.02,0-3.97.41-5.75,1.14-1.7.73-3.24,1.78-4.54,3.24-1.22,1.3-2.18,2.91-2.91,4.86-.73,1.78-1.05,3.89-1.05,6.16s.32,4.37,1.05,6.16c.73,1.94,1.7,3.56,2.91,4.86,1.29,1.46,2.83,2.51,4.54,3.24,1.7.73,3.65,1.14,5.75,1.14s4.05-.41,5.75-1.14c1.7-.73,3.24-1.78,4.46-3.24,1.21-1.3,2.18-2.92,2.91-4.86.73-1.78,1.05-3.89,1.05-6.16s-.32-4.37-1.05-6.16c-.73-1.95-1.7-3.56-2.91-4.86-1.22-1.46-2.75-2.51-4.46-3.24-1.7-.73-3.65-1.14-5.75-1.14Z"/><path class="cls-1" d="M492.32,229.62l-15.15-29.57-15.32,29.49-18.88-41.65h7.54l12.39,27.63,13.13-27.63h2.35l13.2,27.63,12.23-27.63h7.46l-18.96,41.73Z"/><path class="cls-1" d="M555.51,187.89v40.84h-6.73v-6.65c-1.7,2.27-3.8,4.06-6.4,5.43-2.6,1.38-5.43,2.03-8.59,2.03s-5.76-.57-8.19-1.62c-2.59-1.05-4.7-2.59-6.56-4.46-1.87-1.87-3.24-4.13-4.29-6.73-1.05-2.59-1.54-5.43-1.54-8.51s.49-5.83,1.54-8.34c1.05-2.6,2.43-4.86,4.29-6.73,1.87-1.87,3.97-3.4,6.56-4.46,2.43-1.05,5.19-1.62,8.19-1.62,3.16,0,5.99.65,8.59,1.95,2.6,1.37,4.7,3.16,6.4,5.43v-6.56h6.73ZM534.61,192.92c-2.03,0-3.97.41-5.76,1.14-1.7.73-3.24,1.78-4.53,3.24-1.22,1.3-2.19,2.91-2.92,4.86-.73,1.78-1.05,3.89-1.05,6.16s.32,4.37,1.05,6.16c.73,1.94,1.7,3.56,2.92,4.86,1.29,1.46,2.83,2.51,4.53,3.24,1.7.73,3.65,1.14,5.76,1.14s4.04-.41,5.75-1.14c1.7-.73,3.24-1.78,4.46-3.24,1.21-1.3,2.18-2.92,2.91-4.86.72-1.78,1.05-3.89,1.05-6.16s-.32-4.37-1.05-6.16c-.73-1.95-1.7-3.56-2.91-4.86-1.22-1.46-2.76-2.51-4.46-3.24-1.7-.73-3.64-1.14-5.75-1.14Z"/><path class="cls-1" d="M132.84,143.1h-18.84v-75.93h18.84v8.07c3.44-2.99,7.32-5.38,11.81-7.02,4.33-1.65,9.11-2.54,14.2-2.54s9.42.75,13.3,2.39c4.18,1.49,7.47,3.59,10.46,6.58,2.69,2.69,4.92,6.13,6.57,10.16,1.49,3.89,2.25,8.22,2.25,13.15v45.14h-18.84v-43.79c0-5.53-1.49-9.72-4.64-13.01-3.13-2.99-7.32-4.64-12.71-4.64-6.87,0-12.4,2.24-16.29,6.73-4.18,4.64-6.12,10.77-6.12,18.38v36.32Z"/><path class="cls-1" d="M242.27,144.59c-5.97,0-11.51-1.05-16.44-2.99-5.08-1.94-9.42-4.78-13.15-8.22-3.59-3.44-6.43-7.62-8.52-12.4-2.09-4.93-3.13-10.16-3.13-15.84s1.05-10.92,2.98-15.85c2.1-4.78,4.94-8.97,8.67-12.4,3.74-3.44,8.07-6.27,13.15-8.22,4.93-1.94,10.46-2.99,16.44-2.99s11.51.9,16.44,2.99c4.94,1.8,9.27,4.64,13,8.07,3.74,3.59,6.58,7.78,8.52,12.56,2.09,4.93,3.14,10.16,3.14,15.85s-1.05,10.91-3.14,15.84c-1.94,4.79-4.78,8.97-8.37,12.56-3.73,3.44-8.07,6.27-13.15,8.07-4.93,2.09-10.46,2.99-16.44,2.99ZM242.27,81.67c-6.42,0-11.51,2.1-15.54,6.43-4.03,4.33-5.98,10.01-5.98,17.04s1.95,12.56,5.98,17.03c3.88,4.19,9.12,6.43,15.54,6.43s11.66-2.24,15.55-6.43c4.03-4.48,5.98-10.01,5.98-17.03s-1.95-12.71-5.98-17.04c-4.04-4.33-9.12-6.43-15.55-6.43Z"/><path class="cls-1" d="M312.55,143.1h-18.84v-75.93h18.84v8.07c3.13-2.99,6.87-5.38,11.21-7.02,4.18-1.65,8.82-2.54,13.91-2.54,6.12,0,11.51,1.2,16.14,3.59,4.63,2.39,8.22,5.68,10.9,10.02,3.44-4.33,7.62-7.62,12.56-10.02,5.08-2.39,10.76-3.59,17.03-3.59,4.94,0,9.42.75,13.45,2.39,4.03,1.49,7.62,3.59,10.46,6.58,2.84,2.69,5.08,6.13,6.87,10.16,1.49,3.89,2.39,8.22,2.39,13.15v45.14h-18.83v-43.79c0-5.53-1.49-9.72-4.78-13.01-2.99-2.99-7.32-4.64-12.71-4.64-2.84,0-5.38.45-7.91,1.35-2.54.89-4.64,2.09-6.58,3.88-1.94,1.49-3.29,3.44-4.48,5.68-.89,2.09-1.49,4.48-1.49,7.02v43.5h-18.98v-43.79c0-5.53-1.49-9.72-4.48-13.01-2.99-2.99-7.17-4.64-12.55-4.64-6.88,0-12.26,2.24-16.29,6.73-3.89,4.33-5.83,10.31-5.83,17.79v36.92Z"/><path class="cls-1" d="M478.79,144.59c-5.98,0-11.51-1.05-16.44-2.99-5.08-1.94-9.41-4.78-13.15-8.22-3.58-3.44-6.43-7.62-8.52-12.4-2.09-4.93-3.14-10.16-3.14-15.84s1.05-10.92,2.99-15.85c2.1-4.78,4.94-8.97,8.67-12.4,3.74-3.44,8.08-6.27,13.15-8.22,4.94-1.94,10.46-2.99,16.44-2.99s11.51.9,16.44,2.99c4.93,1.8,9.27,4.64,13,8.07,3.74,3.59,6.58,7.78,8.52,12.56,2.1,4.93,3.14,10.16,3.14,15.85s-1.04,10.91-3.14,15.84c-1.94,4.79-4.78,8.97-8.37,12.56-3.74,3.44-8.07,6.27-13.15,8.07-4.94,2.09-10.46,2.99-16.44,2.99ZM478.79,81.67c-6.43,0-11.51,2.1-15.54,6.43-4.04,4.33-5.98,10.01-5.98,17.04s1.94,12.56,5.98,17.03c3.88,4.19,9.11,6.43,15.54,6.43s11.66-2.24,15.55-6.43c4.04-4.48,5.98-10.01,5.98-17.03s-1.94-12.71-5.98-17.04c-4.04-4.33-9.11-6.43-15.55-6.43Z"/><path class="cls-1" d="M570.89,81.67c-6.73,0-12.26,2.1-16.29,6.43-4.19,4.33-6.28,10.01-6.28,17.04,0,3.44.6,6.58,1.65,9.42,1.04,2.84,2.69,5.38,4.64,7.32,1.94,2.09,4.48,3.74,7.17,4.78,2.99,1.2,5.98,1.8,9.42,1.8,3.74,0,7.32-.6,10.76-1.94,3.44-1.35,6.43-3.14,8.67-5.38l7.62,12.71c-3.74,3.13-8.22,5.83-13.15,7.77-5.08,1.94-10.01,2.99-14.8,2.99-6.13,0-11.66-1.05-16.74-2.99-5.08-1.94-9.42-4.78-13.15-8.22-3.74-3.44-6.58-7.62-8.67-12.4-2.09-4.93-3.13-10.16-3.13-15.84s1.05-10.92,3.13-15.85c2.1-4.78,4.94-8.97,8.67-12.4,3.74-3.44,8.07-6.27,13.15-8.22,5.08-1.94,10.61-2.99,16.59-2.99,4.94,0,9.57.75,13.75,2.09,4.48,1.35,8.37,3.44,11.81,5.98l-5.98,16c-2.24-2.39-4.94-4.34-8.22-5.83-3.29-1.49-6.88-2.24-10.61-2.24Z"/><path class="cls-1" d="M686,67.17v75.93h-18.84v-7.32c-2.99,2.84-6.43,4.93-10.31,6.43-4.03,1.65-8.37,2.39-13,2.39-5.68,0-10.91-1.05-15.55-2.99-4.63-1.94-8.67-4.78-12.1-8.22-3.29-3.44-5.83-7.62-7.78-12.4-1.94-4.93-2.84-10.16-2.84-15.99s.9-10.91,2.84-15.7c1.95-4.78,4.48-8.97,7.93-12.4,3.44-3.44,7.47-6.27,12.1-8.22,4.63-1.94,9.87-2.99,15.39-2.99,4.64,0,8.97.75,13,2.39,3.89,1.49,7.32,3.59,10.31,6.27v-7.17h18.84ZM646.09,81.67c-6.27,0-11.36,2.1-15.24,6.43-3.74,4.33-5.68,10.01-5.68,17.04,0,3.44.45,6.72,1.49,9.57,1.04,2.84,2.39,5.38,4.18,7.47,1.94,1.95,4.18,3.59,6.72,4.79,2.54,1.05,5.39,1.65,8.52,1.65s5.98-.6,8.67-1.65c2.39-1.19,4.63-2.84,6.57-4.79,1.8-2.09,3.14-4.63,4.18-7.47,1.05-2.84,1.49-6.13,1.49-9.57s-.45-6.73-1.49-9.57c-1.04-2.84-2.39-5.38-4.18-7.47-1.94-1.95-4.18-3.59-6.57-4.79-2.69-1.04-5.53-1.65-8.67-1.65Z"/></svg>