<svg width="800" height="300" viewBox="0 0 800 300" fill="none" xmlns="http://www.w3.org/2000/svg">
<path d="M264.58 51.1201H121.86C117.13 51.1201 113.48 55.2601 114.06 59.9501L134.74 225.8C136.38 238.96 147.62 248.88 160.88 248.88H225.57C238.83 248.88 250.07 238.96 251.71 225.8L272.38 59.9501C272.96 55.2601 269.31 51.1201 264.58 51.1201Z" fill="#2B7A78"/>
<path d="M241.51 58.1699L211.96 60.0499L204.22 67.5799L198.13 83.9799L203.32 103.38L232.62 109.79L246.42 104.6L253.95 84.9199L241.49 58.1699H241.51ZM238.67 92.5899L230.19 95.9399L216.09 89.1099L218.43 75.5099L230.18 70.1499L238.66 79.1899V92.5899H238.67Z" fill="#FAF8F4"/>
<path d="M238.33 119.72H219.39L210.88 124.89L202.47 138.52L206.7 157.56L219.16 167.2L236.71 169.08L251.93 156.42L254.23 131.71L238.34 119.72H238.33ZM236.13 152.42H224.13L219.76 143.96L225.85 135.5L238.15 139.47L236.14 152.42H236.13Z" fill="#FAF8F4"/>
<path d="M182.68 184.19L183.25 200.21L173.18 197.51L164.65 199.17L160.45 204.39L158.82 212.14L161.51 217.68L167.53 221.32L174.1 222L183.39 218.07L186.51 215.28L189.79 231.67L186.18 233.1L175.64 237.11H164.87L157.89 235.4L152.17 233.12L146.98 227.52L141.85 215.98L141.08 206.9L144.52 195.82L147.53 190.37L152.81 186.9L162.91 184.19L169.39 182.79L178.75 183.28L182.68 184.19Z" fill="#FAF8F4"/>
<path d="M144.56 64.36L148.92 114.89L163.04 113.67L160.38 82.82L164.97 76.59L172.36 75.72L177.32 81.82L179.94 112.21L194.29 110.97L190.95 72.25L180.56 62.65L167.25 62.4L158.11 64.59L158.54 61.52L144.56 64.36Z" fill="#FAF8F4"/>
<path d="M134.29 124.6C134.43 125.82 133.11 170.12 133.11 170.12L145.77 170.68L147.07 146.9L149.67 143.38L153.33 141.98L157.4 143.66L160.01 148.24L158.74 171.41L172.69 171.94L174.95 148.27L178.03 144.11L180.93 143.89L185.86 146.42L187.15 152.34L186.06 172.7L198.52 173.25L200.06 141.3L192.04 131.4L182.54 126.9L173.51 129.5L168.69 132.91L157.66 126.71L151.38 126.81L147.26 128.43L147.82 125.22L134.3 124.57L134.29 124.6Z" fill="#FAF8F4"/>
<path d="M231.57 182.19L231.1 185.95L220.41 179L203.52 183.56L190.73 197.69L193.14 216.44L206.27 227.3L223.33 227.91L222.87 230.37L235.33 232.68L244.28 184.33L231.57 182.2V182.19ZM219.33 213.48L210.67 211.88L207.02 205.52L209.98 198.83L215.32 196.03L223.65 198.65L224.69 207.76L219.32 213.49L219.33 213.48Z" fill="#FAF8F4"/>
<path d="M310.77 162.8V212.14H304.57V162.8H310.77ZM331.99 162.8H339.11L318.46 186.13L340.88 212.14H333.48L311.48 186.34L332 162.8H331.99Z" fill="#2B7A78"/>
<path d="M382.24 176.62V212.15H376.39V206.37C374.91 208.35 373.08 209.9 370.82 211.09C368.57 212.29 366.1 212.85 363.35 212.85C360.6 212.85 358.34 212.36 356.23 211.44C353.97 210.52 352.14 209.19 350.52 207.56C348.9 205.94 347.7 203.97 346.78 201.71C345.86 199.46 345.44 196.99 345.44 194.31C345.44 191.63 345.86 189.23 346.78 187.05C347.7 184.79 348.89 182.82 350.52 181.2C352.14 179.58 353.97 178.24 356.23 177.32C358.34 176.4 360.74 175.91 363.35 175.91C366.1 175.91 368.57 176.47 370.82 177.6C373.08 178.79 374.91 180.35 376.39 182.32V176.61H382.24V176.62ZM364.06 180.99C362.3 180.99 360.6 181.34 359.05 181.98C357.57 182.62 356.23 183.53 355.1 184.8C354.04 185.93 353.19 187.34 352.56 189.03C351.92 190.58 351.64 192.41 351.64 194.39C351.64 196.37 351.92 198.2 352.56 199.75C353.2 201.44 354.04 202.85 355.1 203.98C356.23 205.25 357.57 206.16 359.05 206.8C360.53 207.44 362.22 207.79 364.06 207.79C365.9 207.79 367.58 207.44 369.06 206.8C370.54 206.16 371.88 205.25 372.94 203.98C374 202.85 374.85 201.44 375.48 199.75C376.11 198.2 376.39 196.36 376.39 194.39C376.39 192.42 376.11 190.58 375.48 189.03C374.84 187.34 374 185.93 372.94 184.8C371.88 183.53 370.54 182.62 369.06 181.98C367.58 181.34 365.89 180.99 364.06 180.99Z" fill="#2B7A78"/>
<path d="M407.96 212.29C405.42 212.29 403.1 211.87 400.84 210.88C398.72 210.03 396.82 208.77 395.2 207.07C393.65 205.52 392.45 203.55 391.53 201.36C390.61 199.18 390.19 196.71 390.19 194.1C390.19 191.49 390.61 189.02 391.53 186.84C392.45 184.65 393.65 182.68 395.2 181.13C396.82 179.44 398.72 178.17 400.84 177.32C403.1 176.33 405.42 175.91 407.96 175.91C410.71 175.91 413.25 176.47 415.44 177.6C417.62 178.65 419.46 180.21 420.94 182.18V176.61H426.79L426.86 211.99C426.86 214.38 426.44 216.5 425.52 218.48C424.61 220.31 423.34 221.93 421.65 223.27C419.96 224.61 417.91 225.59 415.52 226.3C413.06 227.01 410.3 227.36 407.27 227.36C405.93 227.36 404.53 227.36 402.83 227.22C401.28 227.22 399.3 227.01 397.05 226.73L397.4 221.44C399.23 221.79 400.99 222 402.83 222.15C404.52 222.29 406.14 222.36 407.55 222.36C411.85 222.36 415.1 221.44 417.49 219.61C419.75 217.85 420.95 215.31 420.95 212.07V206.01C419.47 207.92 417.63 209.47 415.38 210.59C413.2 211.72 410.73 212.28 407.98 212.28L407.96 212.29ZM408.74 180.99C406.98 180.99 405.29 181.27 403.81 181.98C402.33 182.54 400.99 183.46 399.86 184.66C398.8 185.86 397.96 187.2 397.32 188.75C396.68 190.37 396.4 192.13 396.4 194.04C396.4 195.95 396.68 197.78 397.32 199.33C397.96 201.02 398.8 202.36 399.86 203.56C400.92 204.69 402.26 205.6 403.74 206.24C405.22 206.88 406.91 207.23 408.67 207.23C410.43 207.23 412.13 206.88 413.61 206.24C415.09 205.6 416.42 204.69 417.48 203.56C418.54 202.36 419.39 201.02 420.02 199.33C420.66 197.78 420.94 195.95 420.94 194.04C420.94 192.13 420.66 190.38 420.02 188.75C419.38 187.2 418.54 185.86 417.48 184.66C416.42 183.46 415.09 182.55 413.68 181.98C412.13 181.27 410.5 180.99 408.74 180.99Z" fill="#2B7A78"/>
<path d="M471.39 176.62V212.15H465.54V206.37C464.06 208.35 462.23 209.9 459.98 211.09C457.72 212.29 455.25 212.85 452.5 212.85C449.89 212.85 447.49 212.36 445.38 211.44C443.13 210.52 441.3 209.19 439.67 207.56C438.04 205.93 436.85 203.97 435.93 201.71C435.02 199.46 434.59 196.99 434.59 194.31C434.59 191.63 435.01 189.23 435.93 187.05C436.85 184.79 438.05 182.82 439.67 181.2C441.29 179.58 443.12 178.24 445.38 177.32C447.5 176.4 449.9 175.91 452.5 175.91C455.25 175.91 457.72 176.47 459.98 177.6C462.23 178.79 464.06 180.35 465.54 182.32V176.61H471.39V176.62ZM453.21 180.99C451.45 180.99 449.76 181.34 448.2 181.98C446.72 182.62 445.38 183.53 444.25 184.8C443.19 185.93 442.35 187.34 441.71 189.03C441.07 190.58 440.79 192.41 440.79 194.39C440.79 196.37 441.07 198.2 441.71 199.75C442.35 201.44 443.19 202.85 444.25 203.98C445.37 205.25 446.71 206.16 448.2 206.8C449.68 207.44 451.38 207.79 453.21 207.79C455.04 207.79 456.73 207.44 458.22 206.8C459.7 206.16 461.04 205.25 462.1 203.98C463.15 202.85 464 201.44 464.64 199.75C465.28 198.2 465.56 196.36 465.56 194.39C465.56 192.42 465.28 190.58 464.64 189.03C464 187.34 463.16 185.93 462.1 184.8C461.04 183.53 459.71 182.62 458.22 181.98C456.74 181.34 455.04 180.99 453.21 180.99Z" fill="#2B7A78"/>
<path d="M520.17 212.92L506.99 187.19L493.66 212.85L477.24 176.62H483.8L494.58 200.66L506 176.62H508.05L519.54 200.66L530.18 176.62H536.67L520.18 212.92H520.17Z" fill="#2B7A78"/>
<path d="M575.14 176.62V212.15H569.28V206.37C567.8 208.35 565.97 209.9 563.72 211.09C561.46 212.29 559 212.85 556.25 212.85C553.5 212.85 551.24 212.36 549.13 211.44C546.88 210.52 545.04 209.19 543.42 207.56C541.8 205.94 540.6 203.97 539.68 201.71C538.77 199.46 538.34 196.99 538.34 194.31C538.34 191.63 538.76 189.23 539.68 187.05C540.6 184.79 541.79 182.82 543.42 181.2C545.04 179.58 546.88 178.24 549.13 177.32C551.24 176.4 553.64 175.91 556.25 175.91C559 175.91 561.46 176.47 563.72 177.6C565.98 178.79 567.81 180.35 569.28 182.32V176.61H575.14V176.62ZM556.96 180.99C555.2 180.99 553.5 181.34 551.95 181.98C550.47 182.62 549.13 183.53 548.01 184.8C546.95 185.93 546.1 187.34 545.47 189.03C544.83 190.58 544.55 192.41 544.55 194.39C544.55 196.37 544.83 198.2 545.47 199.75C546.11 201.44 546.95 202.85 548.01 203.98C549.13 205.25 550.47 206.16 551.95 206.8C553.43 207.44 555.13 207.79 556.96 207.79C558.79 207.79 560.48 207.44 561.96 206.8C563.44 206.16 564.78 205.25 565.84 203.98C566.89 202.85 567.74 201.44 568.38 199.75C569.01 198.2 569.29 196.36 569.29 194.39C569.29 192.42 569.01 190.58 568.38 189.03C567.74 187.34 566.9 185.93 565.84 184.8C564.78 183.53 563.44 182.62 561.96 181.98C560.48 181.34 558.79 180.99 556.96 180.99Z" fill="#2B7A78"/>
<path d="M317.13 142.46H304.57V91.8301H317.13V97.2101C319.42 95.2201 322.01 93.6201 325 92.5301C327.89 91.4301 331.08 90.8301 334.47 90.8301C337.86 90.8301 340.75 91.3301 343.34 92.4301C346.13 93.4301 348.32 94.8201 350.32 96.8201C352.11 98.6101 353.6 100.91 354.7 103.6C355.7 106.19 356.2 109.08 356.2 112.37V142.47H343.64V113.27C343.64 109.58 342.64 106.79 340.55 104.6C338.46 102.61 335.67 101.51 332.08 101.51C327.5 101.51 323.81 103.01 321.22 106C318.43 109.09 317.14 113.18 317.14 118.26V142.48L317.13 142.46Z" fill="#2B7A78"/>
<path d="M390.1 143.46C386.12 143.46 382.43 142.76 379.14 141.47C375.75 140.18 372.86 138.28 370.37 135.99C367.98 133.7 366.09 130.91 364.69 127.72C363.3 124.43 362.6 120.94 362.6 117.16C362.6 113.38 363.3 109.88 364.59 106.59C365.99 103.4 367.88 100.61 370.37 98.3201C372.86 96.0301 375.75 94.1401 379.14 92.8401C382.43 91.5501 386.12 90.8501 390.1 90.8501C394.08 90.8501 397.78 91.4501 401.07 92.8401C404.36 94.0401 407.25 95.9301 409.74 98.2201C412.24 100.61 414.13 103.41 415.42 106.59C416.81 109.88 417.51 113.37 417.51 117.16C417.51 120.95 416.81 124.44 415.42 127.72C414.13 130.91 412.23 133.7 409.84 136.09C407.35 138.38 404.46 140.27 401.07 141.47C397.78 142.86 394.09 143.46 390.1 143.46ZM390.1 101.5C385.82 101.5 382.43 102.9 379.74 105.79C377.05 108.68 375.75 112.47 375.75 117.15C375.75 121.83 377.05 125.52 379.74 128.51C382.33 131.3 385.82 132.8 390.1 132.8C394.38 132.8 397.88 131.3 400.47 128.51C403.16 125.52 404.46 121.83 404.46 117.15C404.46 112.47 403.16 108.68 400.47 105.79C397.78 102.9 394.39 101.5 390.1 101.5Z" fill="#2B7A78"/>
<path d="M436.97 142.46H424.41V91.8301H436.97V97.2101C439.06 95.2201 441.55 93.6201 444.44 92.5301C447.23 91.4301 450.32 90.8301 453.71 90.8301C457.79 90.8301 461.38 91.6301 464.47 93.2201C467.56 94.8201 469.95 97.0101 471.74 99.9001C474.04 97.0101 476.82 94.8201 480.12 93.2201C483.5 91.6301 487.29 90.8301 491.48 90.8301C494.77 90.8301 497.76 91.3301 500.45 92.4301C503.14 93.4301 505.53 94.8201 507.43 96.8201C509.32 98.6101 510.82 100.91 512.01 103.6C513.01 106.19 513.61 109.08 513.61 112.37V142.47H501.05V113.27C501.05 109.58 500.05 106.79 497.86 104.6C495.87 102.61 492.98 101.51 489.38 101.51C487.49 101.51 485.79 101.81 484.1 102.41C482.4 103.01 481.01 103.8 479.71 105C478.42 106 477.52 107.3 476.72 108.79C476.12 110.18 475.72 111.78 475.72 113.47V142.47H463.06V113.27C463.06 109.58 462.06 106.79 460.07 104.6C458.08 102.61 455.29 101.51 451.7 101.51C447.11 101.51 443.52 103.01 440.84 106C438.25 108.89 436.95 112.88 436.95 117.86V142.48L436.97 142.46Z" fill="#2B7A78"/>
<path d="M547.82 143.46C543.83 143.46 540.15 142.76 536.85 141.47C533.47 140.18 530.58 138.28 528.08 135.99C525.69 133.7 523.8 130.91 522.4 127.72C521.01 124.43 520.31 120.94 520.31 117.16C520.31 113.38 521.01 109.88 522.3 106.59C523.7 103.4 525.59 100.61 528.08 98.3201C530.58 96.0301 533.47 94.1401 536.85 92.8401C540.14 91.5501 543.83 90.8501 547.82 90.8501C551.81 90.8501 555.49 91.4501 558.79 92.8401C562.08 94.0401 564.97 95.9301 567.46 98.2201C569.95 100.61 571.85 103.41 573.14 106.59C574.54 109.88 575.23 113.37 575.23 117.16C575.23 120.95 574.53 124.44 573.14 127.72C571.85 130.91 569.95 133.7 567.56 136.09C565.07 138.38 562.18 140.27 558.79 141.47C555.5 142.86 551.81 143.46 547.82 143.46ZM547.82 101.5C543.54 101.5 540.15 102.9 537.46 105.79C534.77 108.68 533.47 112.47 533.47 117.15C533.47 121.83 534.76 125.52 537.46 128.51C540.05 131.3 543.54 132.8 547.82 132.8C552.1 132.8 555.59 131.3 558.19 128.51C560.88 125.52 562.18 121.83 562.18 117.15C562.18 112.47 560.89 108.68 558.19 105.79C555.5 102.9 552.11 101.5 547.82 101.5Z" fill="#2B7A78"/>
<path d="M609.24 101.5C604.75 101.5 601.06 102.9 598.38 105.79C595.59 108.68 594.19 112.47 594.19 117.15C594.19 119.44 594.59 121.54 595.29 123.43C595.99 125.32 597.08 127.02 598.38 128.31C599.67 129.7 601.37 130.8 603.16 131.5C605.15 132.3 607.15 132.7 609.44 132.7C611.93 132.7 614.32 132.3 616.61 131.41C618.91 130.51 620.9 129.32 622.39 127.82L627.47 136.29C624.98 138.38 621.99 140.18 618.7 141.47C615.31 142.76 612.02 143.46 608.83 143.46C604.74 143.46 601.06 142.76 597.67 141.47C594.28 140.18 591.39 138.28 588.9 135.99C586.41 133.7 584.51 130.91 583.12 127.72C581.73 124.43 581.03 120.94 581.03 117.16C581.03 113.38 581.73 109.88 583.12 106.59C584.52 103.4 586.41 100.61 588.9 98.3201C591.39 96.0301 594.28 94.1401 597.67 92.8401C601.06 91.5501 604.74 90.8501 608.73 90.8501C612.02 90.8501 615.11 91.3501 617.9 92.2401C620.89 93.1401 623.48 94.5401 625.77 96.2301L621.78 106.9C620.28 105.3 618.49 104.01 616.3 103.01C614.11 102.01 611.71 101.51 609.23 101.51L609.24 101.5Z" fill="#2B7A78"/>
<path d="M686 91.8301V142.46H673.44V137.58C671.45 139.47 669.16 140.87 666.56 141.86C663.87 142.96 660.98 143.46 657.89 143.46C654.1 143.46 650.61 142.76 647.52 141.47C644.43 140.18 641.74 138.28 639.45 135.99C637.26 133.7 635.56 130.91 634.26 127.72C632.97 124.43 632.37 120.94 632.37 117.06C632.37 113.18 632.97 109.78 634.26 106.59C635.56 103.4 637.25 100.61 639.55 98.3201C641.84 96.0301 644.53 94.1401 647.62 92.8401C650.71 91.5501 654.2 90.8501 657.89 90.8501C660.98 90.8501 663.87 91.3501 666.56 92.4501C669.15 93.4501 671.44 94.8401 673.44 96.6301V91.8501H686V91.8301ZM659.39 101.5C655.21 101.5 651.81 102.9 649.22 105.79C646.73 108.68 645.43 112.47 645.43 117.15C645.43 119.44 645.73 121.63 646.43 123.53C647.13 125.42 648.02 127.12 649.22 128.51C650.51 129.81 652.01 130.91 653.7 131.7C655.4 132.4 657.29 132.8 659.38 132.8C661.47 132.8 663.37 132.4 665.16 131.7C666.75 130.9 668.25 129.81 669.54 128.51C670.74 127.12 671.63 125.42 672.33 123.53C673.03 121.63 673.33 119.44 673.33 117.15C673.33 114.86 673.03 112.66 672.33 110.77C671.63 108.87 670.74 107.18 669.54 105.79C668.25 104.49 666.75 103.4 665.16 102.6C663.36 101.9 661.47 101.5 659.38 101.5H659.39Z" fill="#2B7A78"/>
</svg>
