<?xml version="1.0" encoding="UTF-8"?><svg id="_レイヤー_1" xmlns="http://www.w3.org/2000/svg" viewBox="0 0 800 800"><defs><style>.cls-1{fill:#faf8f4;}.cls-2{fill:#2b7a78;}</style></defs><path class="cls-2" d="M549.52,100H250.48c-9.9,0-17.57,8.68-16.34,18.5l43.32,347.5c3.44,27.57,26.98,48.36,54.76,48.36h135.55c27.78,0,51.33-20.79,54.77-48.36l43.32-347.5c1.23-9.83-6.44-18.5-16.34-18.5h0Z"/><path class="cls-1" d="M501.18,114.77l-61.91,3.94-16.21,15.78-12.75,34.37,10.88,40.65,61.39,13.43,28.93-10.87,15.77-41.25-26.1-56.06ZM495.23,186.88l-17.78,7.02-29.54-14.31,4.91-28.5,24.63-11.23,17.78,18.95v28.07Z"/><path class="cls-1" d="M494.53,243.73h-39.68l-17.84,10.83-17.62,28.56,8.86,39.89,26.1,20.19,36.77,3.94,31.88-26.52,4.82-51.78-33.3-25.11ZM489.91,312.26h-25.14l-9.16-17.72,12.75-17.72,25.77,8.31-4.22,27.13Z"/><polygon class="cls-1" points="377.92 378.82 379.1 412.39 358.02 406.74 340.14 410.21 331.34 421.15 327.92 437.38 333.55 448.99 346.17 456.61 359.95 458.05 379.41 449.8 385.94 443.97 392.81 478.31 385.25 481.3 363.17 489.7 340.59 489.7 325.97 486.12 313.99 481.35 303.11 469.61 292.37 445.43 290.75 426.41 297.96 403.19 304.26 391.77 315.33 384.49 336.49 378.82 350.08 375.89 369.69 376.92 377.92 378.82"/><polygon class="cls-1" points="298.05 127.74 307.19 233.61 336.77 231.06 331.19 166.41 340.82 153.37 356.3 151.54 366.68 164.33 372.18 228 402.25 225.41 395.25 144.27 373.48 124.16 345.58 123.64 326.43 128.22 327.34 121.79 298.05 127.74"/><path class="cls-1" d="M276.53,253.95c.3,2.56-2.47,95.39-2.47,95.39l26.52,1.18,2.73-49.82,5.44-7.37,7.67-2.93,8.52,3.52,5.47,9.59-2.67,48.55,29.24,1.12,4.75-49.6,6.45-8.72,6.08-.46,10.32,5.3,2.7,12.4-2.29,42.66,26.1,1.16,3.22-66.95-16.81-20.73-19.9-9.44-18.92,5.45-10.09,7.15-23.12-12.98-13.15.22-8.64,3.4,1.17-6.73-28.34-1.36Z"/><path class="cls-1" d="M480.35,374.64l-.98,7.87-22.4-14.56-35.39,9.55-26.79,29.61,5.04,39.29,27.52,22.75,35.75,1.28-.96,5.16,26.1,4.83,18.75-101.32-26.64-4.46ZM454.7,440.2l-18.15-3.36-7.64-13.33,6.2-14.01,11.2-5.87,17.46,5.49,2.18,19.09-11.25,12Z"/><path class="cls-2" d="M282.98,641.47v44.73h-5.62v-44.73h5.62ZM302.21,641.47h6.45l-18.72,21.15,20.32,23.58h-6.71l-19.94-23.39,18.6-21.34Z"/><path class="cls-2" d="M347.77,653.99v32.21h-5.31v-5.24c-1.34,1.79-3,3.2-5.05,4.28-2.04,1.09-4.28,1.6-6.77,1.6s-4.54-.45-6.45-1.28c-2.05-.83-3.71-2.04-5.18-3.51-1.47-1.47-2.55-3.26-3.39-5.31-.83-2.04-1.22-4.28-1.22-6.71s.38-4.6,1.22-6.58c.83-2.05,1.91-3.83,3.39-5.31,1.47-1.47,3.13-2.68,5.18-3.51,1.91-.83,4.09-1.28,6.45-1.28,2.49,0,4.73.51,6.77,1.54,2.05,1.08,3.71,2.49,5.05,4.28v-5.18h5.31ZM331.28,657.95c-1.6,0-3.13.32-4.54.9-1.34.58-2.55,1.4-3.58,2.55-.96,1.02-1.73,2.3-2.3,3.83-.58,1.41-.83,3.07-.83,4.86s.26,3.45.83,4.86c.58,1.53,1.34,2.81,2.3,3.83,1.02,1.15,2.24,1.98,3.58,2.55s2.87.9,4.54.9,3.19-.32,4.53-.9c1.34-.58,2.56-1.4,3.52-2.55.96-1.02,1.73-2.3,2.3-3.83.57-1.41.83-3.07.83-4.86s-.26-3.45-.83-4.86c-.58-1.54-1.34-2.81-2.3-3.83-.96-1.15-2.18-1.98-3.52-2.55-1.34-.58-2.87-.9-4.53-.9Z"/><path class="cls-2" d="M371.08,686.32c-2.3,0-4.4-.38-6.45-1.28-1.92-.77-3.64-1.91-5.11-3.45-1.41-1.41-2.49-3.19-3.33-5.18-.83-1.98-1.22-4.22-1.22-6.58s.38-4.6,1.22-6.58c.83-1.98,1.92-3.77,3.33-5.18,1.47-1.54,3.19-2.68,5.11-3.45,2.05-.9,4.15-1.28,6.45-1.28,2.49,0,4.8.51,6.78,1.54,1.98.96,3.64,2.36,4.99,4.15v-5.05h5.3l.06,32.08c0,2.17-.38,4.09-1.22,5.88-.83,1.66-1.98,3.13-3.51,4.35-1.54,1.21-3.39,2.11-5.56,2.75-2.23.64-4.73.96-7.48.96-1.21,0-2.49,0-4.02-.13-1.41,0-3.2-.19-5.24-.45l.32-4.79c1.66.32,3.26.51,4.92.64,1.54.13,3,.19,4.28.19,3.9,0,6.84-.83,9.01-2.49,2.05-1.59,3.13-3.9,3.13-6.84v-5.5c-1.34,1.73-3.01,3.13-5.05,4.15-1.98,1.02-4.22,1.54-6.71,1.54ZM371.79,657.95c-1.59,0-3.13.26-4.47.9-1.34.51-2.56,1.34-3.58,2.43-.96,1.09-1.72,2.3-2.3,3.71-.58,1.47-.83,3.07-.83,4.79s.26,3.39.83,4.79c.58,1.53,1.34,2.75,2.3,3.83.96,1.02,2.18,1.85,3.52,2.43,1.34.58,2.87.9,4.47.9s3.13-.32,4.48-.9c1.34-.58,2.55-1.4,3.51-2.43.96-1.09,1.73-2.3,2.3-3.83.58-1.41.83-3.07.83-4.79s-.26-3.32-.83-4.79c-.58-1.4-1.34-2.62-2.3-3.71s-2.17-1.91-3.45-2.43c-1.41-.64-2.88-.9-4.48-.9Z"/><path class="cls-2" d="M428.59,653.99v32.21h-5.31v-5.24c-1.34,1.79-3,3.2-5.04,4.28-2.05,1.09-4.29,1.6-6.78,1.6-2.36,0-4.54-.45-6.46-1.28-2.04-.83-3.7-2.04-5.17-3.51s-2.56-3.26-3.39-5.31c-.83-2.04-1.21-4.28-1.21-6.71s.38-4.6,1.21-6.58c.83-2.05,1.92-3.83,3.39-5.31s3.13-2.68,5.17-3.51c1.92-.83,4.09-1.28,6.46-1.28,2.49,0,4.73.51,6.78,1.54,2.04,1.08,3.7,2.49,5.04,4.28v-5.18h5.31ZM412.1,657.95c-1.59,0-3.13.32-4.54.9-1.34.58-2.56,1.4-3.58,2.55-.96,1.02-1.72,2.3-2.3,3.83-.58,1.41-.83,3.07-.83,4.86s.26,3.45.83,4.86c.58,1.53,1.34,2.81,2.3,3.83,1.02,1.15,2.23,1.98,3.58,2.55s2.88.9,4.54.9,3.19-.32,4.54-.9,2.55-1.4,3.51-2.55c.96-1.02,1.72-2.3,2.3-3.83.58-1.41.83-3.07.83-4.86s-.26-3.45-.83-4.86c-.58-1.54-1.34-2.81-2.3-3.83-.96-1.15-2.17-1.98-3.51-2.55s-2.88-.9-4.54-.9Z"/><path class="cls-2" d="M472.8,686.9l-11.95-23.32-12.08,23.26-14.89-32.85h5.94l9.77,21.79,10.35-21.79h1.86l10.41,21.79,9.65-21.79h5.88l-14.95,32.91Z"/><path class="cls-2" d="M522.64,653.99v32.21h-5.31v-5.24c-1.34,1.79-3,3.2-5.04,4.28-2.05,1.09-4.28,1.6-6.77,1.6s-4.54-.45-6.46-1.28c-2.04-.83-3.71-2.04-5.18-3.51-1.47-1.47-2.55-3.26-3.39-5.31-.83-2.04-1.21-4.28-1.21-6.71s.38-4.6,1.21-6.58c.83-2.05,1.91-3.83,3.39-5.31,1.47-1.47,3.13-2.68,5.18-3.51,1.91-.83,4.09-1.28,6.46-1.28,2.49,0,4.72.51,6.77,1.54,2.05,1.08,3.71,2.49,5.04,4.28v-5.18h5.31ZM506.16,657.95c-1.6,0-3.13.32-4.54.9-1.34.58-2.55,1.4-3.57,2.55-.96,1.02-1.73,2.3-2.3,3.83-.58,1.41-.83,3.07-.83,4.86s.26,3.45.83,4.86c.58,1.53,1.34,2.81,2.3,3.83,1.02,1.15,2.23,1.98,3.57,2.55,1.34.58,2.88.9,4.54.9s3.19-.32,4.53-.9,2.56-1.4,3.52-2.55c.96-1.02,1.72-2.3,2.3-3.83.57-1.41.83-3.07.83-4.86s-.26-3.45-.83-4.86c-.58-1.54-1.34-2.81-2.3-3.83-.96-1.15-2.18-1.98-3.52-2.55s-2.87-.9-4.53-.9Z"/><path class="cls-2" d="M189.3,618.66h-14.86v-59.88h14.86v6.37c2.71-2.36,5.78-4.24,9.31-5.54,3.42-1.3,7.19-2.01,11.2-2.01s7.43.59,10.49,1.89c3.3,1.18,5.89,2.83,8.25,5.19,2.12,2.12,3.88,4.83,5.18,8.01,1.18,3.07,1.77,6.48,1.77,10.37v35.6h-14.86v-34.54c0-4.36-1.18-7.66-3.66-10.26-2.47-2.36-5.78-3.66-10.02-3.66-5.42,0-9.78,1.77-12.85,5.31-3.3,3.66-4.83,8.49-4.83,14.5v28.65Z"/><path class="cls-2" d="M275.6,619.84c-4.71,0-9.07-.83-12.96-2.36-4.01-1.53-7.43-3.77-10.37-6.48-2.83-2.71-5.07-6.01-6.72-9.78-1.64-3.89-2.47-8.01-2.47-12.49s.83-8.61,2.35-12.5c1.65-3.77,3.89-7.07,6.84-9.78,2.95-2.71,6.37-4.95,10.37-6.48,3.89-1.53,8.25-2.36,12.96-2.36s9.08.71,12.97,2.36c3.89,1.42,7.31,3.66,10.25,6.37,2.95,2.83,5.19,6.13,6.72,9.9,1.65,3.89,2.48,8.01,2.48,12.5s-.83,8.6-2.48,12.49c-1.53,3.77-3.77,7.07-6.6,9.9-2.94,2.71-6.36,4.95-10.37,6.37-3.89,1.65-8.25,2.36-12.97,2.36ZM275.6,570.21c-5.06,0-9.07,1.65-12.26,5.07-3.18,3.42-4.72,7.9-4.72,13.44s1.54,9.9,4.72,13.43c3.06,3.3,7.19,5.07,12.26,5.07s9.2-1.77,12.26-5.07c3.18-3.53,4.72-7.9,4.72-13.43s-1.54-10.02-4.72-13.44c-3.18-3.42-7.19-5.07-12.26-5.07Z"/><path class="cls-2" d="M331.03,618.66h-14.86v-59.88h14.86v6.37c2.47-2.36,5.42-4.24,8.84-5.54,3.3-1.3,6.95-2.01,10.97-2.01,4.83,0,9.07.95,12.73,2.83,3.65,1.89,6.48,4.48,8.6,7.9,2.71-3.42,6.01-6.01,9.91-7.9,4-1.88,8.49-2.83,13.43-2.83,3.89,0,7.43.59,10.61,1.89,3.18,1.18,6.01,2.83,8.25,5.19,2.24,2.12,4.01,4.83,5.42,8.01,1.18,3.07,1.89,6.48,1.89,10.37v35.6h-14.85v-34.54c0-4.36-1.18-7.66-3.77-10.26-2.36-2.36-5.78-3.66-10.03-3.66-2.24,0-4.24.36-6.24,1.06-2.01.7-3.66,1.65-5.19,3.06-1.53,1.18-2.6,2.71-3.54,4.48-.7,1.65-1.18,3.54-1.18,5.54v34.3h-14.97v-34.54c0-4.36-1.18-7.66-3.54-10.26-2.36-2.36-5.66-3.66-9.9-3.66-5.43,0-9.67,1.77-12.85,5.31-3.07,3.42-4.6,8.13-4.6,14.03v29.12Z"/><path class="cls-2" d="M462.14,619.84c-4.72,0-9.07-.83-12.97-2.36-4-1.53-7.42-3.77-10.37-6.48-2.82-2.71-5.07-6.01-6.72-9.78-1.65-3.89-2.48-8.01-2.48-12.49s.83-8.61,2.36-12.5c1.65-3.77,3.89-7.07,6.84-9.78,2.95-2.71,6.37-4.95,10.37-6.48,3.89-1.53,8.25-2.36,12.97-2.36s9.07.71,12.97,2.36c3.89,1.42,7.31,3.66,10.25,6.37,2.95,2.83,5.19,6.13,6.72,9.9,1.65,3.89,2.48,8.01,2.48,12.5s-.82,8.6-2.48,12.49c-1.53,3.77-3.77,7.07-6.6,9.9-2.95,2.71-6.37,4.95-10.37,6.37-3.89,1.65-8.25,2.36-12.97,2.36ZM462.14,570.21c-5.07,0-9.07,1.65-12.26,5.07-3.18,3.42-4.72,7.9-4.72,13.44s1.53,9.9,4.72,13.43c3.06,3.3,7.19,5.07,12.26,5.07s9.19-1.77,12.26-5.07c3.18-3.53,4.72-7.9,4.72-13.43s-1.53-10.02-4.72-13.44c-3.18-3.42-7.19-5.07-12.26-5.07Z"/><path class="cls-2" d="M534.77,570.21c-5.31,0-9.67,1.65-12.85,5.07-3.3,3.42-4.95,7.9-4.95,13.44,0,2.71.47,5.19,1.3,7.43.82,2.24,2.12,4.24,3.66,5.78,1.53,1.65,3.54,2.95,5.66,3.77,2.36.95,4.72,1.42,7.43,1.42,2.95,0,5.78-.47,8.49-1.53,2.71-1.06,5.07-2.48,6.84-4.24l6.01,10.02c-2.95,2.47-6.48,4.6-10.37,6.13-4.01,1.53-7.9,2.36-11.67,2.36-4.83,0-9.19-.83-13.2-2.36-4.01-1.53-7.43-3.77-10.37-6.48-2.95-2.71-5.19-6.01-6.84-9.78-1.64-3.89-2.47-8.01-2.47-12.49s.83-8.61,2.47-12.5c1.65-3.77,3.89-7.07,6.84-9.78,2.95-2.71,6.37-4.95,10.37-6.48,4.01-1.53,8.37-2.36,13.08-2.36,3.89,0,7.55.59,10.85,1.65,3.54,1.06,6.6,2.71,9.31,4.72l-4.72,12.62c-1.77-1.89-3.89-3.42-6.48-4.6-2.59-1.18-5.42-1.77-8.37-1.77Z"/><path class="cls-2" d="M625.55,558.78v59.88h-14.86v-5.78c-2.36,2.24-5.07,3.89-8.13,5.07-3.18,1.3-6.6,1.89-10.25,1.89-4.48,0-8.6-.83-12.26-2.36-3.65-1.53-6.84-3.77-9.55-6.48-2.6-2.71-4.6-6.01-6.13-9.78-1.53-3.89-2.24-8.01-2.24-12.61s.71-8.6,2.24-12.38c1.54-3.77,3.54-7.07,6.25-9.78,2.71-2.71,5.89-4.95,9.55-6.48,3.65-1.53,7.78-2.36,12.14-2.36,3.66,0,7.07.59,10.25,1.89,3.07,1.18,5.78,2.83,8.13,4.95v-5.66h14.86ZM594.08,570.21c-4.95,0-8.96,1.65-12.02,5.07-2.95,3.42-4.48,7.9-4.48,13.44,0,2.71.35,5.3,1.18,7.54.82,2.24,1.88,4.24,3.3,5.89,1.53,1.54,3.3,2.83,5.3,3.77,2.01.83,4.25,1.3,6.72,1.3s4.72-.47,6.84-1.3c1.88-.94,3.65-2.24,5.18-3.77,1.42-1.65,2.48-3.65,3.3-5.89.83-2.24,1.18-4.83,1.18-7.54s-.35-5.31-1.18-7.54c-.82-2.24-1.88-4.24-3.3-5.89-1.53-1.54-3.3-2.83-5.18-3.77-2.12-.82-4.36-1.3-6.84-1.3Z"/></svg>