<?xml version="1.0" encoding="UTF-8"?><svg id="_レイヤー_1" xmlns="http://www.w3.org/2000/svg" viewBox="0 0 800 800"><defs><style>.cls-1{fill:#faf8f4;}.cls-2{fill:#2b7a78;}</style></defs><path class="cls-2" d="M560.86,67.02l-425.73,75.07c-14.09,2.49-22.83,16.77-18.62,30.44l148.9,483.84c11.82,38.39,50.55,62.07,90.1,55.1l192.97-34.03c39.55-6.97,67.86-42.48,65.83-82.6l-25.56-505.59c-.72-14.3-13.81-24.72-27.91-22.24h0Z"/><path class="cls-1" d="M470.23,122.86l-87.15,21.15-19.12,26.53-9.52,52.13,25.69,55.14,90.77,3.71,38.46-22.74,12.1-62.68-51.23-73.26h0ZM479.86,227.01l-23.55,14.46-45.65-12.96-.16-41.81,32.25-22.17,30.07,22.51,7.05,39.96Z"/><path class="cls-1" d="M511.03,292.47l-55.22,15.52-20.59,22.05-13.35,46.64,27.93,52.05,44.22,17.89,52.71-8.9,33.99-49.38-13.55-73.95-56.16-21.92h.01ZM531.4,389.65l-34.99,9.83-19.68-21.08,10.81-29.65,39.11,1.49,4.74,39.41Z"/><polygon class="cls-1" points="389.14 511.06 397.8 558.84 366.47 555.13 341.61 563.81 331.29 581.29 329.77 605.22 340.24 620.66 359.88 628.94 379.89 628.14 406.01 612.29 414.15 602.59 431.11 650.29 420.91 656.14 391.07 672.74 358.77 677.44 337.11 675.35 318.98 671.02 300.98 656.48 280.59 624.12 274.32 597.25 279.81 562.53 286.45 544.88 300.77 532.17 329.87 519.66 348.7 512.65 376.97 510.05 389.14 511.06"/><polygon class="cls-1" points="192.61 179.2 218.91 330.55 261.2 323.2 245.14 230.78 257.39 210.81 279.46 206.25 296 223.38 311.82 314.4 354.81 306.94 334.66 190.95 300.81 164.68 260.56 167.4 233.55 176.37 234.06 167 192.61 179.2"/><path class="cls-1" d="M210.86,363.22c1.07,3.57,20.43,136.42,20.43,136.42l38.05-4.98-8.62-71.61,5.89-11.86,10.18-6.1,13.01,2.87,10.19,12.28,8.39,69.79,41.91-5.75-5.69-71.8,6.99-14.03,8.54-2.18,16.02,4.95,6.96,16.98,7.45,61.31,37.45-4.9-12.22-96.12-29.14-25.29-30.7-8.44-25.57,12.51-12.57,12.71-36.17-12.68-18.67,3.61-11.45,7.01-.02-9.87-40.69,5.18h.03Z"/><path class="cls-1" d="M529.83,480.51l-.09,11.46-34.6-17.16-49.22,19.64-33.51,47,13.81,55.57,43.32,28.06,51.55-4.15-.51,7.57,38.28,2.57,9.97-148.62-39-1.95h0ZM503.97,578.94l-26.62-1.79-13.2-17.86,6.56-21.15,15.1-10.3,25.99,4.96,6.33,27.05-14.15,19.11h0Z"/></svg>





