<?xml version="1.0" encoding="UTF-8"?><svg id="_レイヤー_1" xmlns="http://www.w3.org/2000/svg" viewBox="0 0 800 800"><defs><style>.cls-1{fill:#faf8f4;}.cls-2{fill:#2b7a78;}</style></defs><path class="cls-2" d="M616.15,100H183.85c-14.31,0-25.4,12.55-23.62,26.74l62.62,502.35c4.97,39.86,39,69.91,79.16,69.91h195.95c40.16,0,74.2-30.05,79.18-69.91l62.62-502.35c1.78-14.21-9.31-26.74-23.62-26.74h0Z"/><path class="cls-1" d="M546.27,121.35l-89.5,5.7-23.43,22.81-18.43,49.69,15.73,58.76,88.75,19.41,41.82-15.71,22.8-59.63-37.73-81.04h0ZM537.66,225.59l-25.7,10.15-42.7-20.69,7.1-41.2,35.61-16.23,25.7,27.39v40.58Z"/><path class="cls-1" d="M536.65,307.78h-57.36l-25.79,15.66-25.47,41.29,12.81,57.67,37.73,29.19,53.15,5.7,46.09-38.34,6.97-74.85-48.14-36.3h.01ZM529.97,406.84h-36.34l-13.24-25.62,18.43-25.62,37.25,12.01-6.1,39.22Z"/><polygon class="cls-1" points="368.08 503.06 369.79 551.59 339.31 543.42 313.47 548.44 300.74 564.26 295.8 587.72 303.94 604.5 322.18 615.52 342.1 617.6 370.24 605.67 379.67 597.24 389.61 646.89 378.68 651.21 346.76 663.35 314.12 663.35 292.98 658.18 275.66 651.28 259.94 634.31 244.41 599.35 242.07 571.86 252.49 538.29 261.6 521.78 277.6 511.26 308.19 503.06 327.84 498.83 356.18 500.32 368.08 503.06"/><polygon class="cls-1" points="252.62 140.1 265.83 293.15 308.59 289.46 300.53 196 314.45 177.15 336.83 174.51 351.83 193 359.78 285.04 403.25 281.29 393.13 164 361.66 134.93 321.33 134.17 293.65 140.79 294.96 131.5 252.62 140.1"/><path class="cls-1" d="M221.51,322.55c.43,3.7-3.57,137.9-3.57,137.9l38.34,1.71,3.95-72.02,7.86-10.65,11.09-4.24,12.32,5.09,7.91,13.86-3.86,70.18,42.27,1.62,6.87-71.7,9.32-12.61,8.79-.66,14.92,7.66,3.9,17.93-3.31,61.67,37.73,1.68,4.65-96.78-24.3-29.97-28.77-13.65-27.35,7.88-14.59,10.34-33.42-18.76-19.01.32-12.49,4.92,1.69-9.73-40.97-1.97h.03Z"/><path class="cls-1" d="M516.15,497.02l-1.42,11.38-32.38-21.05-51.16,13.81-38.73,42.8,7.29,56.8,39.78,32.89,51.68,1.85-1.39,7.46,37.73,6.98,27.11-146.47-38.51-6.45h0ZM479.07,591.79l-26.24-4.86-11.04-19.27,8.96-20.25,16.19-8.49,25.24,7.94,3.15,27.6-16.26,17.35h0Z"/></svg>
